G04*
G04 #@! TF.GenerationSoftware,Altium Limited,Altium Designer,20.2.4 (192)*
G04*
G04 Layer_Color=8421504*
%FSLAX43Y43*%
%MOMM*%
G71*
G04*
G04 #@! TF.SameCoordinates,A1AC5039-B4B7-4606-9BB0-FCCAC20A1F60*
G04*
G04*
G04 #@! TF.FilePolarity,Positive*
G04*
G01*
G75*
%ADD10R,0.640X1.000*%
%ADD11R,1.000X0.640*%
%ADD12C,0.100*%
%ADD13R,1.550X1.300*%
%ADD14R,1.650X3.500*%
%ADD15R,1.650X1.500*%
%ADD16R,0.640X1.000*%
%ADD17R,0.510X0.700*%
%ADD18R,1.400X1.000*%
%ADD19R,0.600X1.300*%
%ADD20R,1.100X1.500*%
%ADD21R,0.800X0.800*%
%ADD22R,0.800X0.800*%
%ADD23R,0.900X1.600*%
%ADD24R,0.500X0.300*%
%ADD25C,0.250*%
%ADD26R,1.700X0.300*%
%ADD27R,0.300X1.700*%
G04:AMPARAMS|DCode=28|XSize=1mm|YSize=2.5mm|CornerRadius=0mm|HoleSize=0mm|Usage=FLASHONLY|Rotation=45.000|XOffset=0mm|YOffset=0mm|HoleType=Round|Shape=Rectangle|*
%AMROTATEDRECTD28*
4,1,4,0.530,-1.237,-1.237,0.530,-0.530,1.237,1.237,-0.530,0.530,-1.237,0.0*
%
%ADD28ROTATEDRECTD28*%

G04:AMPARAMS|DCode=29|XSize=1mm|YSize=2.5mm|CornerRadius=0mm|HoleSize=0mm|Usage=FLASHONLY|Rotation=315.000|XOffset=0mm|YOffset=0mm|HoleType=Round|Shape=Rectangle|*
%AMROTATEDRECTD29*
4,1,4,-1.237,-0.530,0.530,1.237,1.237,0.530,-0.530,-1.237,-1.237,-0.530,0.0*
%
%ADD29ROTATEDRECTD29*%

%ADD30R,1.700X2.500*%
%ADD31R,0.500X0.450*%
%ADD32R,0.425X0.330*%
%ADD33R,1.200X0.400*%
%ADD34R,0.600X1.200*%
%ADD35R,0.250X0.600*%
%ADD36R,0.800X0.550*%
%ADD37R,0.900X0.550*%
%ADD38R,0.650X0.300*%
%ADD39R,0.850X0.750*%
%ADD40R,0.500X1.000*%
%ADD41R,0.300X1.200*%
%ADD42R,2.790X0.740*%
%ADD43R,1.400X0.900*%
%ADD44R,0.640X0.890*%
%ADD45R,0.510X0.560*%
%ADD46R,0.560X0.510*%
%ADD47R,1.300X0.600*%
%ADD48R,1.000X1.400*%
%ADD49R,0.700X0.510*%
%ADD50R,1.000X0.640*%
%ADD51R,0.330X0.425*%
%ADD52R,0.900X1.400*%
%ADD53R,0.890X0.640*%
G36*
X3610Y-21127D02*
X3630Y-21129D01*
X3671Y-21135D01*
X3721Y-21146D01*
X3774Y-21163D01*
X3827Y-21188D01*
X3879Y-21218D01*
X3882D01*
X3885Y-21224D01*
X3902Y-21235D01*
X3927Y-21257D01*
X3957Y-21285D01*
X3990Y-21321D01*
X4024Y-21365D01*
X4057Y-21418D01*
X4085Y-21476D01*
Y-21479D01*
X4088Y-21485D01*
X4090Y-21493D01*
X4096Y-21504D01*
X4102Y-21521D01*
X4107Y-21540D01*
X4121Y-21585D01*
X4135Y-21640D01*
X4146Y-21701D01*
X4154Y-21771D01*
X4157Y-21843D01*
Y-21846D01*
Y-21851D01*
Y-21862D01*
Y-21879D01*
X4154Y-21898D01*
Y-21921D01*
X4149Y-21971D01*
X4138Y-22032D01*
X4124Y-22095D01*
X4104Y-22162D01*
X4079Y-22229D01*
Y-22232D01*
X4077Y-22237D01*
X4071Y-22245D01*
X4065Y-22257D01*
X4046Y-22287D01*
X4021Y-22326D01*
X3990Y-22368D01*
X3952Y-22409D01*
X3907Y-22451D01*
X3854Y-22490D01*
X3852D01*
X3849Y-22492D01*
X3841Y-22498D01*
X3829Y-22504D01*
X3802Y-22517D01*
X3763Y-22534D01*
X3716Y-22551D01*
X3666Y-22565D01*
X3607Y-22576D01*
X3549Y-22579D01*
X3530D01*
X3507Y-22576D01*
X3480Y-22573D01*
X3446Y-22567D01*
X3410Y-22559D01*
X3374Y-22548D01*
X3338Y-22531D01*
X3335Y-22529D01*
X3321Y-22523D01*
X3305Y-22512D01*
X3283Y-22495D01*
X3260Y-22479D01*
X3233Y-22456D01*
X3208Y-22431D01*
X3185Y-22404D01*
Y-23081D01*
X2949D01*
Y-21154D01*
X3163D01*
Y-21338D01*
X3166Y-21332D01*
X3177Y-21321D01*
X3191Y-21301D01*
X3213Y-21279D01*
X3238Y-21252D01*
X3266Y-21227D01*
X3299Y-21202D01*
X3333Y-21179D01*
X3338Y-21177D01*
X3349Y-21171D01*
X3371Y-21163D01*
X3399Y-21152D01*
X3432Y-21140D01*
X3471Y-21132D01*
X3516Y-21127D01*
X3566Y-21124D01*
X3596D01*
X3610Y-21127D01*
D02*
G37*
G36*
X8988D02*
X9029Y-21129D01*
X9074Y-21135D01*
X9121Y-21146D01*
X9171Y-21157D01*
X9218Y-21174D01*
X9221D01*
X9224Y-21177D01*
X9238Y-21182D01*
X9260Y-21193D01*
X9288Y-21207D01*
X9318Y-21227D01*
X9349Y-21249D01*
X9376Y-21274D01*
X9401Y-21301D01*
X9404Y-21304D01*
X9410Y-21315D01*
X9421Y-21335D01*
X9435Y-21357D01*
X9449Y-21390D01*
X9462Y-21426D01*
X9474Y-21468D01*
X9485Y-21515D01*
X9254Y-21546D01*
Y-21540D01*
X9251Y-21529D01*
X9246Y-21510D01*
X9238Y-21485D01*
X9224Y-21460D01*
X9207Y-21432D01*
X9188Y-21404D01*
X9160Y-21379D01*
X9157Y-21376D01*
X9146Y-21371D01*
X9129Y-21360D01*
X9104Y-21349D01*
X9077Y-21338D01*
X9040Y-21326D01*
X8996Y-21321D01*
X8949Y-21318D01*
X8921D01*
X8893Y-21321D01*
X8857Y-21324D01*
X8821Y-21332D01*
X8782Y-21340D01*
X8746Y-21354D01*
X8716Y-21374D01*
X8713Y-21376D01*
X8705Y-21382D01*
X8693Y-21393D01*
X8682Y-21410D01*
X8668Y-21426D01*
X8657Y-21449D01*
X8649Y-21474D01*
X8646Y-21499D01*
Y-21501D01*
Y-21507D01*
X8649Y-21515D01*
Y-21526D01*
X8657Y-21554D01*
X8674Y-21582D01*
X8677Y-21585D01*
X8680Y-21587D01*
X8685Y-21596D01*
X8696Y-21604D01*
X8707Y-21612D01*
X8724Y-21624D01*
X8743Y-21632D01*
X8766Y-21643D01*
X8768D01*
X8774Y-21646D01*
X8785Y-21649D01*
X8804Y-21657D01*
X8832Y-21665D01*
X8868Y-21674D01*
X8891Y-21682D01*
X8915Y-21687D01*
X8943Y-21696D01*
X8974Y-21704D01*
X8977D01*
X8985Y-21707D01*
X8999Y-21710D01*
X9015Y-21715D01*
X9035Y-21721D01*
X9060Y-21726D01*
X9113Y-21743D01*
X9171Y-21760D01*
X9229Y-21779D01*
X9282Y-21798D01*
X9304Y-21807D01*
X9324Y-21815D01*
X9329Y-21818D01*
X9340Y-21823D01*
X9357Y-21832D01*
X9382Y-21846D01*
X9407Y-21862D01*
X9432Y-21884D01*
X9457Y-21909D01*
X9479Y-21937D01*
X9482Y-21940D01*
X9487Y-21951D01*
X9498Y-21968D01*
X9510Y-21993D01*
X9518Y-22023D01*
X9529Y-22057D01*
X9535Y-22095D01*
X9537Y-22140D01*
Y-22145D01*
Y-22159D01*
X9535Y-22182D01*
X9529Y-22212D01*
X9521Y-22245D01*
X9507Y-22281D01*
X9490Y-22323D01*
X9468Y-22362D01*
X9465Y-22368D01*
X9454Y-22379D01*
X9440Y-22398D01*
X9418Y-22420D01*
X9387Y-22445D01*
X9354Y-22473D01*
X9315Y-22498D01*
X9268Y-22523D01*
X9265D01*
X9263Y-22526D01*
X9246Y-22531D01*
X9218Y-22540D01*
X9182Y-22551D01*
X9138Y-22562D01*
X9088Y-22570D01*
X9035Y-22576D01*
X8974Y-22579D01*
X8949D01*
X8929Y-22576D01*
X8907D01*
X8879Y-22573D01*
X8852Y-22570D01*
X8821Y-22565D01*
X8754Y-22551D01*
X8685Y-22531D01*
X8618Y-22504D01*
X8588Y-22487D01*
X8560Y-22468D01*
X8557Y-22465D01*
X8555Y-22462D01*
X8538Y-22445D01*
X8513Y-22420D01*
X8485Y-22381D01*
X8455Y-22334D01*
X8424Y-22279D01*
X8399Y-22209D01*
X8380Y-22132D01*
X8613Y-22095D01*
Y-22098D01*
Y-22101D01*
X8618Y-22118D01*
X8624Y-22145D01*
X8635Y-22176D01*
X8649Y-22209D01*
X8666Y-22245D01*
X8691Y-22281D01*
X8721Y-22312D01*
X8727Y-22315D01*
X8738Y-22323D01*
X8760Y-22334D01*
X8788Y-22348D01*
X8824Y-22362D01*
X8866Y-22373D01*
X8915Y-22381D01*
X8974Y-22384D01*
X9002D01*
X9029Y-22381D01*
X9065Y-22376D01*
X9104Y-22368D01*
X9146Y-22356D01*
X9182Y-22343D01*
X9215Y-22320D01*
X9218Y-22318D01*
X9229Y-22309D01*
X9240Y-22295D01*
X9257Y-22276D01*
X9271Y-22254D01*
X9285Y-22226D01*
X9293Y-22198D01*
X9296Y-22165D01*
Y-22162D01*
Y-22151D01*
X9293Y-22137D01*
X9288Y-22118D01*
X9279Y-22098D01*
X9265Y-22079D01*
X9249Y-22057D01*
X9224Y-22040D01*
X9221Y-22037D01*
X9213Y-22034D01*
X9199Y-22026D01*
X9176Y-22018D01*
X9143Y-22007D01*
X9124Y-21998D01*
X9101Y-21993D01*
X9077Y-21984D01*
X9049Y-21976D01*
X9018Y-21968D01*
X8982Y-21959D01*
X8979D01*
X8971Y-21957D01*
X8957Y-21954D01*
X8940Y-21948D01*
X8918Y-21943D01*
X8893Y-21934D01*
X8841Y-21921D01*
X8779Y-21901D01*
X8721Y-21884D01*
X8666Y-21865D01*
X8641Y-21854D01*
X8621Y-21846D01*
X8616Y-21843D01*
X8605Y-21837D01*
X8588Y-21826D01*
X8566Y-21812D01*
X8541Y-21793D01*
X8516Y-21771D01*
X8491Y-21746D01*
X8469Y-21715D01*
X8466Y-21712D01*
X8460Y-21701D01*
X8452Y-21682D01*
X8444Y-21660D01*
X8435Y-21632D01*
X8427Y-21599D01*
X8421Y-21565D01*
X8419Y-21526D01*
Y-21521D01*
Y-21510D01*
X8421Y-21493D01*
X8424Y-21468D01*
X8430Y-21443D01*
X8435Y-21413D01*
X8446Y-21385D01*
X8460Y-21354D01*
X8463Y-21351D01*
X8469Y-21340D01*
X8477Y-21326D01*
X8491Y-21307D01*
X8507Y-21288D01*
X8527Y-21263D01*
X8549Y-21240D01*
X8577Y-21221D01*
X8580Y-21218D01*
X8588Y-21215D01*
X8599Y-21207D01*
X8616Y-21199D01*
X8638Y-21188D01*
X8663Y-21177D01*
X8693Y-21165D01*
X8727Y-21154D01*
X8732Y-21152D01*
X8743Y-21149D01*
X8763Y-21143D01*
X8788Y-21138D01*
X8818Y-21132D01*
X8852Y-21129D01*
X8891Y-21124D01*
X8957D01*
X8988Y-21127D01*
D02*
G37*
G36*
X7630D02*
X7672Y-21129D01*
X7719Y-21135D01*
X7766Y-21143D01*
X7813Y-21154D01*
X7858Y-21168D01*
X7863Y-21171D01*
X7877Y-21177D01*
X7897Y-21185D01*
X7922Y-21196D01*
X7949Y-21213D01*
X7977Y-21229D01*
X8002Y-21252D01*
X8024Y-21274D01*
X8027Y-21277D01*
X8033Y-21285D01*
X8041Y-21299D01*
X8052Y-21315D01*
X8066Y-21340D01*
X8077Y-21365D01*
X8088Y-21396D01*
X8097Y-21432D01*
Y-21435D01*
X8099Y-21443D01*
X8102Y-21460D01*
X8105Y-21482D01*
Y-21512D01*
X8108Y-21549D01*
X8110Y-21596D01*
Y-21649D01*
Y-21965D01*
Y-21968D01*
Y-21979D01*
Y-21996D01*
Y-22018D01*
Y-22043D01*
Y-22073D01*
X8113Y-22140D01*
Y-22209D01*
X8116Y-22279D01*
X8119Y-22309D01*
Y-22337D01*
X8122Y-22362D01*
X8124Y-22381D01*
Y-22384D01*
X8127Y-22395D01*
X8130Y-22412D01*
X8138Y-22434D01*
X8144Y-22459D01*
X8155Y-22487D01*
X8169Y-22517D01*
X8183Y-22548D01*
X7935D01*
X7933Y-22545D01*
X7930Y-22534D01*
X7924Y-22520D01*
X7916Y-22498D01*
X7908Y-22473D01*
X7902Y-22443D01*
X7897Y-22409D01*
X7891Y-22373D01*
X7888D01*
X7886Y-22379D01*
X7869Y-22393D01*
X7844Y-22412D01*
X7811Y-22437D01*
X7769Y-22462D01*
X7727Y-22490D01*
X7683Y-22515D01*
X7636Y-22534D01*
X7630Y-22537D01*
X7613Y-22540D01*
X7588Y-22548D01*
X7558Y-22556D01*
X7519Y-22565D01*
X7475Y-22570D01*
X7425Y-22576D01*
X7375Y-22579D01*
X7352D01*
X7336Y-22576D01*
X7316D01*
X7294Y-22573D01*
X7244Y-22565D01*
X7189Y-22551D01*
X7128Y-22531D01*
X7072Y-22504D01*
X7022Y-22468D01*
X7017Y-22462D01*
X7003Y-22448D01*
X6983Y-22423D01*
X6961Y-22390D01*
X6939Y-22348D01*
X6919Y-22301D01*
X6906Y-22243D01*
X6903Y-22215D01*
X6900Y-22182D01*
Y-22176D01*
Y-22165D01*
X6903Y-22145D01*
X6906Y-22120D01*
X6911Y-22090D01*
X6919Y-22059D01*
X6931Y-22026D01*
X6944Y-21996D01*
X6947Y-21993D01*
X6953Y-21982D01*
X6964Y-21965D01*
X6978Y-21946D01*
X6994Y-21923D01*
X7017Y-21901D01*
X7039Y-21879D01*
X7067Y-21860D01*
X7069Y-21857D01*
X7080Y-21851D01*
X7094Y-21840D01*
X7117Y-21829D01*
X7141Y-21818D01*
X7172Y-21804D01*
X7203Y-21793D01*
X7239Y-21782D01*
X7241D01*
X7253Y-21779D01*
X7269Y-21773D01*
X7291Y-21771D01*
X7319Y-21765D01*
X7355Y-21760D01*
X7397Y-21751D01*
X7447Y-21746D01*
X7450D01*
X7461Y-21743D01*
X7475D01*
X7494Y-21740D01*
X7516Y-21737D01*
X7544Y-21732D01*
X7575Y-21729D01*
X7608Y-21723D01*
X7675Y-21710D01*
X7747Y-21696D01*
X7811Y-21679D01*
X7841Y-21671D01*
X7869Y-21662D01*
Y-21660D01*
Y-21654D01*
X7872Y-21637D01*
Y-21618D01*
Y-21607D01*
Y-21601D01*
Y-21599D01*
Y-21596D01*
Y-21579D01*
X7869Y-21551D01*
X7863Y-21521D01*
X7855Y-21487D01*
X7841Y-21454D01*
X7824Y-21424D01*
X7802Y-21399D01*
X7799Y-21396D01*
X7786Y-21385D01*
X7763Y-21374D01*
X7736Y-21357D01*
X7697Y-21343D01*
X7652Y-21329D01*
X7597Y-21321D01*
X7533Y-21318D01*
X7505D01*
X7477Y-21321D01*
X7439Y-21326D01*
X7400Y-21332D01*
X7358Y-21343D01*
X7319Y-21357D01*
X7286Y-21376D01*
X7283Y-21379D01*
X7272Y-21388D01*
X7258Y-21401D01*
X7241Y-21424D01*
X7225Y-21451D01*
X7205Y-21487D01*
X7189Y-21532D01*
X7172Y-21582D01*
X6942Y-21551D01*
Y-21549D01*
X6944Y-21546D01*
Y-21537D01*
X6947Y-21526D01*
X6955Y-21501D01*
X6967Y-21465D01*
X6980Y-21429D01*
X6997Y-21390D01*
X7019Y-21351D01*
X7044Y-21315D01*
X7047Y-21313D01*
X7058Y-21301D01*
X7075Y-21285D01*
X7097Y-21263D01*
X7128Y-21240D01*
X7164Y-21218D01*
X7205Y-21193D01*
X7253Y-21174D01*
X7255D01*
X7258Y-21171D01*
X7266Y-21168D01*
X7278Y-21165D01*
X7305Y-21157D01*
X7344Y-21149D01*
X7389Y-21140D01*
X7444Y-21132D01*
X7502Y-21127D01*
X7569Y-21124D01*
X7600D01*
X7630Y-21127D01*
D02*
G37*
G36*
X6050Y-20630D02*
X6098Y-20632D01*
X6148Y-20635D01*
X6195Y-20641D01*
X6236Y-20646D01*
X6242D01*
X6261Y-20652D01*
X6286Y-20657D01*
X6320Y-20666D01*
X6356Y-20680D01*
X6395Y-20696D01*
X6436Y-20716D01*
X6472Y-20738D01*
X6478Y-20741D01*
X6489Y-20749D01*
X6506Y-20766D01*
X6528Y-20785D01*
X6553Y-20810D01*
X6578Y-20843D01*
X6606Y-20879D01*
X6628Y-20921D01*
X6631Y-20927D01*
X6636Y-20941D01*
X6647Y-20966D01*
X6658Y-20999D01*
X6667Y-21038D01*
X6678Y-21082D01*
X6683Y-21132D01*
X6686Y-21185D01*
Y-21188D01*
Y-21196D01*
Y-21207D01*
X6683Y-21227D01*
X6681Y-21246D01*
X6678Y-21271D01*
X6672Y-21299D01*
X6667Y-21329D01*
X6647Y-21393D01*
X6636Y-21426D01*
X6620Y-21462D01*
X6600Y-21499D01*
X6581Y-21532D01*
X6556Y-21565D01*
X6528Y-21599D01*
X6525Y-21601D01*
X6520Y-21607D01*
X6511Y-21615D01*
X6497Y-21624D01*
X6481Y-21637D01*
X6459Y-21651D01*
X6431Y-21668D01*
X6400Y-21682D01*
X6364Y-21698D01*
X6323Y-21715D01*
X6278Y-21729D01*
X6225Y-21740D01*
X6170Y-21751D01*
X6109Y-21760D01*
X6039Y-21765D01*
X5967Y-21768D01*
X5476D01*
Y-22548D01*
X5220D01*
Y-20627D01*
X6009D01*
X6050Y-20630D01*
D02*
G37*
G36*
X1223Y-20855D02*
X590D01*
Y-22548D01*
X334D01*
Y-20855D01*
X-299D01*
Y-20627D01*
X1223D01*
Y-20855D01*
D02*
G37*
G36*
X10093Y-21154D02*
X10331D01*
Y-21338D01*
X10093D01*
Y-22157D01*
Y-22162D01*
Y-22173D01*
Y-22190D01*
X10095Y-22209D01*
X10098Y-22254D01*
X10101Y-22273D01*
X10104Y-22287D01*
X10106Y-22293D01*
X10115Y-22304D01*
X10126Y-22318D01*
X10145Y-22331D01*
X10151Y-22334D01*
X10165Y-22340D01*
X10190Y-22345D01*
X10226Y-22348D01*
X10254D01*
X10268Y-22345D01*
X10287D01*
X10309Y-22343D01*
X10331Y-22340D01*
X10362Y-22548D01*
X10356D01*
X10345Y-22551D01*
X10326Y-22554D01*
X10301Y-22556D01*
X10273Y-22562D01*
X10243Y-22565D01*
X10181Y-22567D01*
X10159D01*
X10137Y-22565D01*
X10109Y-22562D01*
X10076Y-22559D01*
X10043Y-22551D01*
X10012Y-22542D01*
X9982Y-22529D01*
X9979Y-22526D01*
X9970Y-22520D01*
X9959Y-22512D01*
X9943Y-22498D01*
X9929Y-22484D01*
X9912Y-22465D01*
X9896Y-22445D01*
X9884Y-22420D01*
Y-22418D01*
X9879Y-22406D01*
X9876Y-22387D01*
X9871Y-22359D01*
X9865Y-22323D01*
X9862Y-22301D01*
Y-22276D01*
X9859Y-22245D01*
X9857Y-22215D01*
Y-22182D01*
Y-22143D01*
Y-21338D01*
X9682D01*
Y-21154D01*
X9857D01*
Y-20810D01*
X10093Y-20669D01*
Y-21154D01*
D02*
G37*
G36*
X11181Y-21127D02*
X11203Y-21129D01*
X11231Y-21135D01*
X11261Y-21140D01*
X11297Y-21149D01*
X11331Y-21157D01*
X11370Y-21171D01*
X11406Y-21185D01*
X11445Y-21204D01*
X11483Y-21227D01*
X11522Y-21252D01*
X11558Y-21282D01*
X11592Y-21315D01*
X11595Y-21318D01*
X11600Y-21324D01*
X11608Y-21335D01*
X11620Y-21351D01*
X11633Y-21371D01*
X11647Y-21393D01*
X11664Y-21421D01*
X11681Y-21454D01*
X11697Y-21490D01*
X11714Y-21529D01*
X11728Y-21574D01*
X11742Y-21621D01*
X11753Y-21674D01*
X11761Y-21729D01*
X11767Y-21787D01*
X11769Y-21851D01*
Y-21854D01*
Y-21865D01*
Y-21884D01*
X11767Y-21912D01*
X10726D01*
Y-21915D01*
Y-21923D01*
X10728Y-21934D01*
Y-21951D01*
X10731Y-21971D01*
X10737Y-21993D01*
X10745Y-22043D01*
X10762Y-22098D01*
X10784Y-22159D01*
X10814Y-22215D01*
X10853Y-22265D01*
X10856D01*
X10859Y-22270D01*
X10876Y-22284D01*
X10900Y-22304D01*
X10934Y-22323D01*
X10978Y-22345D01*
X11028Y-22365D01*
X11084Y-22379D01*
X11114Y-22381D01*
X11148Y-22384D01*
X11170D01*
X11195Y-22381D01*
X11225Y-22376D01*
X11259Y-22368D01*
X11297Y-22356D01*
X11334Y-22340D01*
X11370Y-22318D01*
X11372Y-22315D01*
X11386Y-22304D01*
X11403Y-22287D01*
X11422Y-22265D01*
X11445Y-22234D01*
X11470Y-22195D01*
X11495Y-22151D01*
X11517Y-22098D01*
X11761Y-22129D01*
Y-22132D01*
X11758Y-22137D01*
X11756Y-22148D01*
X11750Y-22165D01*
X11742Y-22182D01*
X11733Y-22204D01*
X11711Y-22251D01*
X11683Y-22304D01*
X11645Y-22359D01*
X11600Y-22412D01*
X11545Y-22462D01*
X11542D01*
X11536Y-22468D01*
X11528Y-22473D01*
X11517Y-22481D01*
X11500Y-22490D01*
X11483Y-22498D01*
X11461Y-22509D01*
X11436Y-22520D01*
X11409Y-22531D01*
X11381Y-22542D01*
X11311Y-22559D01*
X11234Y-22573D01*
X11148Y-22579D01*
X11117D01*
X11098Y-22576D01*
X11073Y-22573D01*
X11042Y-22567D01*
X11009Y-22562D01*
X10973Y-22556D01*
X10895Y-22534D01*
X10853Y-22517D01*
X10814Y-22501D01*
X10773Y-22479D01*
X10734Y-22454D01*
X10698Y-22426D01*
X10662Y-22393D01*
X10659Y-22390D01*
X10653Y-22384D01*
X10645Y-22373D01*
X10634Y-22356D01*
X10620Y-22337D01*
X10606Y-22315D01*
X10590Y-22287D01*
X10573Y-22257D01*
X10556Y-22220D01*
X10540Y-22182D01*
X10526Y-22137D01*
X10512Y-22090D01*
X10501Y-22040D01*
X10492Y-21984D01*
X10487Y-21926D01*
X10484Y-21865D01*
Y-21862D01*
Y-21848D01*
Y-21832D01*
X10487Y-21807D01*
X10490Y-21776D01*
X10492Y-21743D01*
X10498Y-21704D01*
X10506Y-21665D01*
X10528Y-21576D01*
X10542Y-21532D01*
X10559Y-21485D01*
X10581Y-21440D01*
X10606Y-21399D01*
X10634Y-21357D01*
X10665Y-21318D01*
X10667Y-21315D01*
X10673Y-21310D01*
X10684Y-21301D01*
X10698Y-21288D01*
X10714Y-21274D01*
X10737Y-21257D01*
X10762Y-21238D01*
X10792Y-21221D01*
X10823Y-21202D01*
X10859Y-21185D01*
X10898Y-21168D01*
X10939Y-21154D01*
X10984Y-21140D01*
X11031Y-21132D01*
X11081Y-21127D01*
X11134Y-21124D01*
X11161D01*
X11181Y-21127D01*
D02*
G37*
G36*
X2067D02*
X2092Y-21129D01*
X2119Y-21135D01*
X2150Y-21140D01*
X2186Y-21146D01*
X2261Y-21171D01*
X2300Y-21185D01*
X2339Y-21204D01*
X2378Y-21224D01*
X2416Y-21252D01*
X2452Y-21279D01*
X2489Y-21313D01*
X2491Y-21315D01*
X2497Y-21321D01*
X2505Y-21332D01*
X2516Y-21346D01*
X2530Y-21365D01*
X2547Y-21390D01*
X2564Y-21418D01*
X2580Y-21449D01*
X2597Y-21482D01*
X2613Y-21524D01*
X2630Y-21565D01*
X2644Y-21612D01*
X2655Y-21662D01*
X2663Y-21715D01*
X2669Y-21771D01*
X2672Y-21832D01*
Y-21835D01*
Y-21843D01*
Y-21857D01*
Y-21876D01*
X2669Y-21898D01*
X2666Y-21926D01*
Y-21954D01*
X2661Y-21984D01*
X2652Y-22054D01*
X2636Y-22123D01*
X2616Y-22193D01*
X2588Y-22257D01*
Y-22259D01*
X2586Y-22262D01*
X2580Y-22270D01*
X2575Y-22281D01*
X2555Y-22309D01*
X2530Y-22343D01*
X2497Y-22381D01*
X2455Y-22420D01*
X2408Y-22459D01*
X2353Y-22495D01*
X2350D01*
X2347Y-22498D01*
X2339Y-22504D01*
X2325Y-22509D01*
X2311Y-22515D01*
X2294Y-22520D01*
X2253Y-22537D01*
X2205Y-22551D01*
X2147Y-22565D01*
X2086Y-22576D01*
X2019Y-22579D01*
X1992D01*
X1969Y-22576D01*
X1944Y-22573D01*
X1917Y-22567D01*
X1883Y-22562D01*
X1850Y-22556D01*
X1775Y-22534D01*
X1733Y-22517D01*
X1695Y-22501D01*
X1656Y-22479D01*
X1617Y-22454D01*
X1581Y-22426D01*
X1545Y-22393D01*
X1542Y-22390D01*
X1536Y-22384D01*
X1528Y-22373D01*
X1517Y-22356D01*
X1503Y-22337D01*
X1489Y-22315D01*
X1472Y-22287D01*
X1456Y-22254D01*
X1439Y-22218D01*
X1422Y-22176D01*
X1409Y-22132D01*
X1395Y-22084D01*
X1384Y-22032D01*
X1375Y-21976D01*
X1370Y-21915D01*
X1367Y-21851D01*
Y-21846D01*
Y-21835D01*
X1370Y-21815D01*
Y-21787D01*
X1373Y-21757D01*
X1378Y-21718D01*
X1384Y-21679D01*
X1395Y-21635D01*
X1406Y-21590D01*
X1420Y-21543D01*
X1436Y-21493D01*
X1459Y-21446D01*
X1481Y-21401D01*
X1511Y-21357D01*
X1542Y-21315D01*
X1581Y-21279D01*
X1584Y-21277D01*
X1589Y-21274D01*
X1600Y-21265D01*
X1614Y-21254D01*
X1631Y-21243D01*
X1653Y-21229D01*
X1675Y-21215D01*
X1703Y-21202D01*
X1733Y-21188D01*
X1767Y-21174D01*
X1842Y-21149D01*
X1928Y-21129D01*
X1972Y-21127D01*
X2019Y-21124D01*
X2047D01*
X2067Y-21127D01*
D02*
G37*
G36*
X43053Y-20596D02*
X43076D01*
X43128Y-20602D01*
X43187Y-20610D01*
X43248Y-20624D01*
X43314Y-20641D01*
X43378Y-20663D01*
X43381D01*
X43387Y-20666D01*
X43395Y-20669D01*
X43406Y-20674D01*
X43437Y-20691D01*
X43475Y-20710D01*
X43517Y-20738D01*
X43561Y-20771D01*
X43603Y-20807D01*
X43642Y-20852D01*
X43648Y-20857D01*
X43659Y-20874D01*
X43675Y-20899D01*
X43697Y-20935D01*
X43720Y-20979D01*
X43745Y-21035D01*
X43770Y-21096D01*
X43789Y-21165D01*
X43559Y-21227D01*
Y-21224D01*
X43556Y-21221D01*
X43553Y-21213D01*
X43550Y-21202D01*
X43542Y-21177D01*
X43531Y-21143D01*
X43514Y-21104D01*
X43495Y-21068D01*
X43475Y-21029D01*
X43450Y-20996D01*
X43448Y-20993D01*
X43439Y-20982D01*
X43423Y-20968D01*
X43403Y-20949D01*
X43378Y-20927D01*
X43345Y-20904D01*
X43309Y-20882D01*
X43267Y-20863D01*
X43262Y-20860D01*
X43248Y-20855D01*
X43223Y-20846D01*
X43189Y-20835D01*
X43151Y-20827D01*
X43106Y-20818D01*
X43056Y-20813D01*
X43003Y-20810D01*
X42973D01*
X42959Y-20813D01*
X42942D01*
X42901Y-20816D01*
X42854Y-20824D01*
X42801Y-20832D01*
X42751Y-20846D01*
X42701Y-20866D01*
X42695Y-20868D01*
X42679Y-20874D01*
X42656Y-20888D01*
X42629Y-20902D01*
X42595Y-20924D01*
X42559Y-20946D01*
X42526Y-20974D01*
X42495Y-21004D01*
X42493Y-21007D01*
X42482Y-21018D01*
X42468Y-21038D01*
X42451Y-21060D01*
X42432Y-21088D01*
X42412Y-21121D01*
X42393Y-21157D01*
X42373Y-21196D01*
Y-21199D01*
X42370Y-21204D01*
X42368Y-21213D01*
X42362Y-21227D01*
X42357Y-21243D01*
X42351Y-21263D01*
X42343Y-21285D01*
X42337Y-21310D01*
X42323Y-21368D01*
X42312Y-21435D01*
X42304Y-21504D01*
X42301Y-21582D01*
Y-21585D01*
Y-21593D01*
Y-21607D01*
X42304Y-21624D01*
Y-21646D01*
X42307Y-21674D01*
X42309Y-21701D01*
X42312Y-21732D01*
X42323Y-21801D01*
X42337Y-21873D01*
X42359Y-21946D01*
X42387Y-22015D01*
Y-22018D01*
X42393Y-22023D01*
X42395Y-22032D01*
X42404Y-22043D01*
X42423Y-22073D01*
X42454Y-22112D01*
X42490Y-22154D01*
X42534Y-22195D01*
X42587Y-22234D01*
X42645Y-22270D01*
X42648D01*
X42654Y-22273D01*
X42662Y-22279D01*
X42676Y-22284D01*
X42690Y-22290D01*
X42709Y-22295D01*
X42754Y-22312D01*
X42809Y-22326D01*
X42870Y-22340D01*
X42937Y-22351D01*
X43006Y-22354D01*
X43034D01*
X43051Y-22351D01*
X43067D01*
X43109Y-22345D01*
X43159Y-22340D01*
X43212Y-22329D01*
X43270Y-22312D01*
X43328Y-22293D01*
X43331D01*
X43337Y-22290D01*
X43342Y-22287D01*
X43353Y-22281D01*
X43384Y-22268D01*
X43417Y-22251D01*
X43456Y-22232D01*
X43498Y-22209D01*
X43536Y-22184D01*
X43570Y-22157D01*
Y-21796D01*
X43003D01*
Y-21568D01*
X43820D01*
Y-22281D01*
X43817Y-22284D01*
X43811Y-22287D01*
X43800Y-22295D01*
X43786Y-22306D01*
X43770Y-22318D01*
X43750Y-22331D01*
X43725Y-22348D01*
X43700Y-22365D01*
X43642Y-22401D01*
X43575Y-22440D01*
X43506Y-22476D01*
X43431Y-22506D01*
X43428D01*
X43423Y-22509D01*
X43412Y-22512D01*
X43398Y-22517D01*
X43378Y-22523D01*
X43356Y-22531D01*
X43331Y-22537D01*
X43306Y-22542D01*
X43245Y-22556D01*
X43176Y-22570D01*
X43101Y-22579D01*
X43023Y-22581D01*
X42995D01*
X42976Y-22579D01*
X42951D01*
X42920Y-22576D01*
X42887Y-22570D01*
X42851Y-22567D01*
X42770Y-22551D01*
X42684Y-22531D01*
X42595Y-22501D01*
X42551Y-22484D01*
X42506Y-22462D01*
X42504Y-22459D01*
X42495Y-22456D01*
X42484Y-22448D01*
X42468Y-22440D01*
X42448Y-22426D01*
X42429Y-22412D01*
X42376Y-22373D01*
X42320Y-22323D01*
X42262Y-22262D01*
X42207Y-22193D01*
X42157Y-22112D01*
Y-22109D01*
X42151Y-22101D01*
X42146Y-22090D01*
X42137Y-22070D01*
X42129Y-22051D01*
X42121Y-22023D01*
X42109Y-21996D01*
X42098Y-21962D01*
X42087Y-21926D01*
X42076Y-21884D01*
X42068Y-21843D01*
X42060Y-21798D01*
X42046Y-21701D01*
X42040Y-21599D01*
Y-21596D01*
Y-21585D01*
Y-21571D01*
X42043Y-21551D01*
Y-21526D01*
X42046Y-21496D01*
X42051Y-21465D01*
X42054Y-21429D01*
X42062Y-21390D01*
X42068Y-21349D01*
X42090Y-21260D01*
X42118Y-21168D01*
X42157Y-21077D01*
X42159Y-21074D01*
X42162Y-21066D01*
X42168Y-21054D01*
X42179Y-21038D01*
X42190Y-21016D01*
X42204Y-20993D01*
X42243Y-20941D01*
X42290Y-20879D01*
X42348Y-20821D01*
X42415Y-20763D01*
X42454Y-20738D01*
X42493Y-20713D01*
X42495Y-20710D01*
X42504Y-20707D01*
X42515Y-20702D01*
X42531Y-20693D01*
X42554Y-20685D01*
X42579Y-20674D01*
X42606Y-20663D01*
X42640Y-20652D01*
X42676Y-20641D01*
X42715Y-20632D01*
X42756Y-20621D01*
X42801Y-20613D01*
X42898Y-20599D01*
X42948Y-20594D01*
X43037D01*
X43053Y-20596D01*
D02*
G37*
G36*
X46665Y-20630D02*
X46712Y-20632D01*
X46762Y-20635D01*
X46810Y-20641D01*
X46851Y-20646D01*
X46857D01*
X46876Y-20652D01*
X46901Y-20657D01*
X46935Y-20666D01*
X46971Y-20680D01*
X47010Y-20696D01*
X47051Y-20716D01*
X47087Y-20738D01*
X47093Y-20741D01*
X47104Y-20749D01*
X47121Y-20766D01*
X47143Y-20785D01*
X47168Y-20810D01*
X47193Y-20843D01*
X47221Y-20879D01*
X47243Y-20921D01*
X47245Y-20927D01*
X47251Y-20941D01*
X47262Y-20966D01*
X47273Y-20999D01*
X47282Y-21038D01*
X47293Y-21082D01*
X47298Y-21132D01*
X47301Y-21185D01*
Y-21188D01*
Y-21196D01*
Y-21207D01*
X47298Y-21227D01*
X47295Y-21246D01*
X47293Y-21271D01*
X47287Y-21299D01*
X47282Y-21329D01*
X47262Y-21393D01*
X47251Y-21426D01*
X47234Y-21462D01*
X47215Y-21499D01*
X47196Y-21532D01*
X47171Y-21565D01*
X47143Y-21599D01*
X47140Y-21601D01*
X47134Y-21607D01*
X47126Y-21615D01*
X47112Y-21624D01*
X47096Y-21637D01*
X47073Y-21651D01*
X47046Y-21668D01*
X47015Y-21682D01*
X46979Y-21698D01*
X46937Y-21715D01*
X46893Y-21729D01*
X46840Y-21740D01*
X46785Y-21751D01*
X46724Y-21760D01*
X46654Y-21765D01*
X46582Y-21768D01*
X46091D01*
Y-22548D01*
X45835D01*
Y-20627D01*
X46624D01*
X46665Y-20630D01*
D02*
G37*
G36*
X45571Y-20855D02*
X44938D01*
Y-22548D01*
X44683D01*
Y-20855D01*
X44050D01*
Y-20627D01*
X45571D01*
Y-20855D01*
D02*
G37*
G36*
X41665Y-22548D02*
X41396D01*
Y-22279D01*
X41665D01*
Y-22548D01*
D02*
G37*
%LPC*%
G36*
X3544Y-21310D02*
X3530D01*
X3519Y-21313D01*
X3491Y-21318D01*
X3455Y-21326D01*
X3413Y-21343D01*
X3369Y-21368D01*
X3344Y-21385D01*
X3321Y-21404D01*
X3299Y-21426D01*
X3277Y-21451D01*
Y-21454D01*
X3271Y-21457D01*
X3266Y-21465D01*
X3260Y-21476D01*
X3252Y-21493D01*
X3241Y-21510D01*
X3230Y-21532D01*
X3221Y-21554D01*
X3210Y-21582D01*
X3199Y-21612D01*
X3191Y-21646D01*
X3180Y-21682D01*
X3174Y-21723D01*
X3169Y-21765D01*
X3163Y-21810D01*
Y-21860D01*
Y-21862D01*
Y-21871D01*
Y-21884D01*
X3166Y-21904D01*
Y-21926D01*
X3169Y-21951D01*
X3177Y-22009D01*
X3191Y-22076D01*
X3208Y-22140D01*
X3235Y-22204D01*
X3252Y-22232D01*
X3271Y-22257D01*
X3277Y-22262D01*
X3291Y-22276D01*
X3313Y-22298D01*
X3344Y-22320D01*
X3382Y-22343D01*
X3427Y-22365D01*
X3477Y-22379D01*
X3505Y-22381D01*
X3532Y-22384D01*
X3549D01*
X3560Y-22381D01*
X3588Y-22376D01*
X3627Y-22368D01*
X3668Y-22351D01*
X3713Y-22329D01*
X3757Y-22295D01*
X3779Y-22276D01*
X3802Y-22254D01*
Y-22251D01*
X3807Y-22248D01*
X3813Y-22240D01*
X3818Y-22229D01*
X3829Y-22215D01*
X3838Y-22195D01*
X3849Y-22176D01*
X3860Y-22151D01*
X3868Y-22126D01*
X3879Y-22093D01*
X3891Y-22059D01*
X3899Y-22023D01*
X3904Y-21982D01*
X3910Y-21937D01*
X3916Y-21890D01*
Y-21840D01*
Y-21837D01*
Y-21829D01*
Y-21815D01*
X3913Y-21796D01*
Y-21773D01*
X3910Y-21748D01*
X3902Y-21690D01*
X3888Y-21626D01*
X3868Y-21562D01*
X3841Y-21499D01*
X3824Y-21468D01*
X3804Y-21443D01*
Y-21440D01*
X3799Y-21438D01*
X3785Y-21421D01*
X3763Y-21401D01*
X3732Y-21376D01*
X3693Y-21351D01*
X3649Y-21329D01*
X3599Y-21315D01*
X3571Y-21313D01*
X3544Y-21310D01*
D02*
G37*
G36*
X7872Y-21848D02*
X7869D01*
X7866Y-21851D01*
X7858Y-21854D01*
X7847Y-21857D01*
X7833Y-21862D01*
X7816Y-21868D01*
X7797Y-21873D01*
X7774Y-21879D01*
X7749Y-21887D01*
X7719Y-21893D01*
X7688Y-21901D01*
X7652Y-21909D01*
X7613Y-21918D01*
X7575Y-21926D01*
X7530Y-21932D01*
X7483Y-21940D01*
X7477D01*
X7461Y-21943D01*
X7433Y-21948D01*
X7402Y-21954D01*
X7369Y-21959D01*
X7336Y-21968D01*
X7305Y-21976D01*
X7278Y-21987D01*
X7275D01*
X7266Y-21993D01*
X7255Y-21998D01*
X7244Y-22007D01*
X7211Y-22029D01*
X7183Y-22062D01*
Y-22065D01*
X7178Y-22070D01*
X7175Y-22082D01*
X7169Y-22095D01*
X7164Y-22112D01*
X7158Y-22129D01*
X7155Y-22151D01*
X7153Y-22173D01*
Y-22176D01*
Y-22190D01*
X7155Y-22207D01*
X7161Y-22229D01*
X7169Y-22254D01*
X7183Y-22279D01*
X7200Y-22306D01*
X7222Y-22331D01*
X7225Y-22334D01*
X7236Y-22340D01*
X7253Y-22351D01*
X7275Y-22362D01*
X7305Y-22373D01*
X7341Y-22384D01*
X7383Y-22390D01*
X7433Y-22393D01*
X7455D01*
X7483Y-22390D01*
X7514Y-22384D01*
X7552Y-22379D01*
X7591Y-22368D01*
X7633Y-22354D01*
X7675Y-22334D01*
X7680Y-22331D01*
X7691Y-22323D01*
X7711Y-22309D01*
X7733Y-22290D01*
X7758Y-22268D01*
X7786Y-22240D01*
X7808Y-22207D01*
X7830Y-22170D01*
X7833Y-22168D01*
X7836Y-22157D01*
X7841Y-22137D01*
X7849Y-22112D01*
X7858Y-22079D01*
X7863Y-22040D01*
X7866Y-21993D01*
X7869Y-21937D01*
X7872Y-21848D01*
D02*
G37*
G36*
X6025Y-20855D02*
X5476D01*
Y-21540D01*
X5992D01*
X6012Y-21537D01*
X6031D01*
X6053Y-21535D01*
X6106Y-21529D01*
X6164Y-21518D01*
X6223Y-21501D01*
X6275Y-21479D01*
X6300Y-21465D01*
X6320Y-21449D01*
X6325Y-21443D01*
X6336Y-21432D01*
X6353Y-21410D01*
X6372Y-21382D01*
X6392Y-21346D01*
X6409Y-21301D01*
X6420Y-21252D01*
X6425Y-21193D01*
Y-21190D01*
Y-21188D01*
Y-21174D01*
X6422Y-21149D01*
X6417Y-21121D01*
X6411Y-21090D01*
X6400Y-21054D01*
X6384Y-21021D01*
X6364Y-20988D01*
X6361Y-20985D01*
X6353Y-20974D01*
X6339Y-20960D01*
X6323Y-20941D01*
X6298Y-20921D01*
X6270Y-20904D01*
X6239Y-20888D01*
X6203Y-20874D01*
X6200D01*
X6189Y-20871D01*
X6173Y-20868D01*
X6150Y-20863D01*
X6117Y-20860D01*
X6075Y-20857D01*
X6025Y-20855D01*
D02*
G37*
G36*
X11136Y-21318D02*
X11120D01*
X11109Y-21321D01*
X11078Y-21324D01*
X11042Y-21332D01*
X10998Y-21346D01*
X10950Y-21365D01*
X10906Y-21393D01*
X10862Y-21429D01*
X10856Y-21435D01*
X10845Y-21449D01*
X10826Y-21474D01*
X10806Y-21507D01*
X10784Y-21546D01*
X10764Y-21596D01*
X10748Y-21654D01*
X10739Y-21718D01*
X11520D01*
Y-21715D01*
Y-21710D01*
X11517Y-21701D01*
Y-21690D01*
X11511Y-21657D01*
X11503Y-21621D01*
X11489Y-21576D01*
X11475Y-21535D01*
X11453Y-21493D01*
X11428Y-21457D01*
Y-21454D01*
X11422Y-21451D01*
X11409Y-21435D01*
X11384Y-21413D01*
X11350Y-21388D01*
X11309Y-21363D01*
X11259Y-21340D01*
X11200Y-21324D01*
X11170Y-21321D01*
X11136Y-21318D01*
D02*
G37*
G36*
X2019D02*
X2003D01*
X1989Y-21321D01*
X1958Y-21324D01*
X1917Y-21335D01*
X1869Y-21351D01*
X1819Y-21374D01*
X1772Y-21407D01*
X1747Y-21429D01*
X1725Y-21451D01*
Y-21454D01*
X1720Y-21457D01*
X1714Y-21465D01*
X1706Y-21476D01*
X1697Y-21490D01*
X1689Y-21507D01*
X1678Y-21529D01*
X1667Y-21551D01*
X1656Y-21579D01*
X1645Y-21607D01*
X1636Y-21640D01*
X1628Y-21676D01*
X1620Y-21715D01*
X1614Y-21757D01*
X1611Y-21804D01*
X1608Y-21851D01*
Y-21854D01*
Y-21862D01*
Y-21876D01*
X1611Y-21896D01*
Y-21918D01*
X1614Y-21943D01*
X1622Y-22001D01*
X1636Y-22068D01*
X1658Y-22134D01*
X1686Y-22198D01*
X1706Y-22226D01*
X1725Y-22254D01*
X1728D01*
X1731Y-22259D01*
X1747Y-22273D01*
X1772Y-22295D01*
X1806Y-22318D01*
X1847Y-22343D01*
X1897Y-22365D01*
X1956Y-22379D01*
X1986Y-22381D01*
X2019Y-22384D01*
X2036D01*
X2050Y-22381D01*
X2080Y-22376D01*
X2122Y-22368D01*
X2167Y-22351D01*
X2216Y-22329D01*
X2264Y-22295D01*
X2289Y-22273D01*
X2311Y-22251D01*
X2314Y-22248D01*
X2316Y-22245D01*
X2322Y-22237D01*
X2330Y-22226D01*
X2339Y-22212D01*
X2350Y-22195D01*
X2361Y-22173D01*
X2372Y-22151D01*
X2383Y-22123D01*
X2391Y-22093D01*
X2402Y-22059D01*
X2411Y-22023D01*
X2419Y-21982D01*
X2425Y-21940D01*
X2430Y-21893D01*
Y-21843D01*
Y-21840D01*
Y-21832D01*
Y-21818D01*
X2427Y-21801D01*
Y-21779D01*
X2425Y-21754D01*
X2416Y-21696D01*
X2402Y-21635D01*
X2380Y-21568D01*
X2350Y-21507D01*
X2333Y-21476D01*
X2311Y-21451D01*
Y-21449D01*
X2305Y-21446D01*
X2289Y-21429D01*
X2264Y-21410D01*
X2230Y-21385D01*
X2189Y-21360D01*
X2139Y-21338D01*
X2083Y-21324D01*
X2053Y-21321D01*
X2019Y-21318D01*
D02*
G37*
G36*
X46640Y-20855D02*
X46091D01*
Y-21540D01*
X46607D01*
X46626Y-21537D01*
X46646D01*
X46668Y-21535D01*
X46721Y-21529D01*
X46779Y-21518D01*
X46837Y-21501D01*
X46890Y-21479D01*
X46915Y-21465D01*
X46935Y-21449D01*
X46940Y-21443D01*
X46951Y-21432D01*
X46968Y-21410D01*
X46987Y-21382D01*
X47007Y-21346D01*
X47023Y-21301D01*
X47035Y-21252D01*
X47040Y-21193D01*
Y-21190D01*
Y-21188D01*
Y-21174D01*
X47037Y-21149D01*
X47032Y-21121D01*
X47026Y-21090D01*
X47015Y-21054D01*
X46998Y-21021D01*
X46979Y-20988D01*
X46976Y-20985D01*
X46968Y-20974D01*
X46954Y-20960D01*
X46937Y-20941D01*
X46912Y-20921D01*
X46885Y-20904D01*
X46854Y-20888D01*
X46818Y-20874D01*
X46815D01*
X46804Y-20871D01*
X46787Y-20868D01*
X46765Y-20863D01*
X46732Y-20860D01*
X46690Y-20857D01*
X46640Y-20855D01*
D02*
G37*
%LPD*%
D10*
X44825Y25650D02*
D03*
X43425Y25650D02*
D03*
X11850Y43575D02*
D03*
X13250D02*
D03*
X35475Y54725D02*
D03*
X34075D02*
D03*
X34070Y53315D02*
D03*
X35470D02*
D03*
X58700Y70350D02*
D03*
X57300D02*
D03*
X29835Y35140D02*
D03*
X28435Y35140D02*
D03*
D11*
X49675Y45700D02*
D03*
X49675Y44300D02*
D03*
X49675Y41825D02*
D03*
X49675Y43225D02*
D03*
X52550Y52025D02*
D03*
X52550Y53425D02*
D03*
X18375Y14175D02*
D03*
X18375Y12775D02*
D03*
X17000Y14175D02*
D03*
X17000Y12775D02*
D03*
D12*
X0Y4000D02*
G03*
X2000Y2000I2000J0D01*
G01*
X2000Y82500D02*
G03*
X0Y80500I0J-2000D01*
G01*
X70000D02*
G03*
X68000Y82500I-2000J0D01*
G01*
X68000Y2000D02*
G03*
X70000Y4000I0J2000D01*
G01*
X11500Y2000D02*
X13500Y0D01*
X46500D01*
X48500Y2000D01*
Y2000D01*
X68000D01*
X2000Y82500D02*
X68000D01*
X2000Y2000D02*
X11500D01*
X0Y4000D02*
Y58000D01*
Y80500D01*
X70000Y4000D02*
Y58000D01*
Y80500D01*
X70000Y80500D02*
X70000Y80500D01*
D13*
X39280Y51050D02*
D03*
Y55550D02*
D03*
X47230Y51050D02*
D03*
Y55550D02*
D03*
X22770Y51050D02*
D03*
Y55550D02*
D03*
X30720Y51050D02*
D03*
Y55550D02*
D03*
D14*
X25025Y43630D02*
D03*
D15*
X18675Y41330D02*
D03*
Y43630D02*
D03*
Y45930D02*
D03*
D16*
X44825Y25650D02*
D03*
X43425D02*
D03*
X11850Y43575D02*
D03*
X13250D02*
D03*
X35475Y54725D02*
D03*
X34075D02*
D03*
X34070Y53315D02*
D03*
X35470D02*
D03*
X58700Y70350D02*
D03*
X57300D02*
D03*
X29835Y35140D02*
D03*
X28435D02*
D03*
D17*
X16950Y72750D02*
D03*
X16050D02*
D03*
X16025Y71675D02*
D03*
X16925D02*
D03*
X38475Y64975D02*
D03*
X39375D02*
D03*
X16225Y60575D02*
D03*
X15325D02*
D03*
X16225Y61650D02*
D03*
X15325D02*
D03*
X16225Y63225D02*
D03*
X15325D02*
D03*
X16225Y64300D02*
D03*
X15325D02*
D03*
X16225Y66450D02*
D03*
X15325D02*
D03*
X16225Y65375D02*
D03*
X15325D02*
D03*
X32675Y8575D02*
D03*
X33575D02*
D03*
X38700Y3925D02*
D03*
X37800D02*
D03*
X22725Y63600D02*
D03*
X23625D02*
D03*
X16950Y73800D02*
D03*
X16050D02*
D03*
X36675Y64450D02*
D03*
X35775D02*
D03*
X36675Y63400D02*
D03*
X35775D02*
D03*
X16925Y70700D02*
D03*
X16025D02*
D03*
X43065Y20860D02*
D03*
X43965D02*
D03*
X14300Y73800D02*
D03*
X15200D02*
D03*
X38200Y80550D02*
D03*
X39100D02*
D03*
X36777Y73620D02*
D03*
X37677D02*
D03*
D18*
X45775Y45250D02*
D03*
X47975Y46200D02*
D03*
Y44300D02*
D03*
D19*
X38767Y77370D02*
D03*
X37817D02*
D03*
X36867D02*
D03*
Y75170D02*
D03*
X38767D02*
D03*
X44980Y60650D02*
D03*
X43080D02*
D03*
Y62850D02*
D03*
X44030D02*
D03*
X44980D02*
D03*
D20*
X62470Y80040D02*
D03*
X60970Y77040D02*
D03*
X62470D02*
D03*
X60970Y80040D02*
D03*
X57425Y80050D02*
D03*
X55925Y77050D02*
D03*
X57425D02*
D03*
X55925Y80050D02*
D03*
D21*
X35325Y80550D02*
D03*
X52550Y55000D02*
D03*
X32625Y1950D02*
D03*
X36400Y2075D02*
D03*
X61700Y70350D02*
D03*
D22*
X36825Y80550D02*
D03*
X52550Y56500D02*
D03*
X32625Y3450D02*
D03*
X36400Y3575D02*
D03*
X60200Y70350D02*
D03*
D23*
X13750Y72050D02*
D03*
D24*
X12850Y72800D02*
D03*
Y72300D02*
D03*
Y71800D02*
D03*
Y71300D02*
D03*
X14650D02*
D03*
Y71800D02*
D03*
Y72300D02*
D03*
Y72800D02*
D03*
D25*
X25150Y63850D02*
D03*
Y64500D02*
D03*
Y65150D02*
D03*
Y65800D02*
D03*
Y66450D02*
D03*
Y67100D02*
D03*
Y67750D02*
D03*
Y68400D02*
D03*
Y69050D02*
D03*
Y69700D02*
D03*
Y70350D02*
D03*
Y71000D02*
D03*
Y71650D02*
D03*
Y72300D02*
D03*
Y72950D02*
D03*
X25800Y63850D02*
D03*
Y64500D02*
D03*
Y65150D02*
D03*
Y65800D02*
D03*
Y66450D02*
D03*
Y67100D02*
D03*
Y67750D02*
D03*
Y68400D02*
D03*
Y69050D02*
D03*
Y69700D02*
D03*
Y70350D02*
D03*
Y71000D02*
D03*
Y71650D02*
D03*
Y72300D02*
D03*
Y72950D02*
D03*
X26450Y63850D02*
D03*
Y64500D02*
D03*
Y65150D02*
D03*
Y65800D02*
D03*
Y66450D02*
D03*
Y67100D02*
D03*
Y67750D02*
D03*
Y68400D02*
D03*
Y69050D02*
D03*
Y69700D02*
D03*
Y70350D02*
D03*
Y71000D02*
D03*
Y71650D02*
D03*
Y72300D02*
D03*
Y72950D02*
D03*
X27100Y63850D02*
D03*
Y64500D02*
D03*
Y65150D02*
D03*
Y65800D02*
D03*
Y66450D02*
D03*
Y67100D02*
D03*
Y67750D02*
D03*
Y68400D02*
D03*
Y69050D02*
D03*
Y69700D02*
D03*
Y70350D02*
D03*
Y71000D02*
D03*
Y71650D02*
D03*
Y72300D02*
D03*
Y72950D02*
D03*
X27750Y63850D02*
D03*
Y64500D02*
D03*
Y65150D02*
D03*
Y65800D02*
D03*
Y71000D02*
D03*
Y71650D02*
D03*
Y72300D02*
D03*
Y72950D02*
D03*
X28400Y63850D02*
D03*
Y64500D02*
D03*
Y65150D02*
D03*
Y65800D02*
D03*
Y67100D02*
D03*
Y67750D02*
D03*
Y68400D02*
D03*
Y69050D02*
D03*
Y69700D02*
D03*
Y71000D02*
D03*
Y71650D02*
D03*
Y72300D02*
D03*
Y72950D02*
D03*
X29050Y63850D02*
D03*
Y64500D02*
D03*
Y65150D02*
D03*
Y65800D02*
D03*
Y67100D02*
D03*
Y67750D02*
D03*
Y68400D02*
D03*
Y69050D02*
D03*
Y69700D02*
D03*
Y71000D02*
D03*
Y71650D02*
D03*
Y72300D02*
D03*
Y72950D02*
D03*
X29700Y63850D02*
D03*
Y64500D02*
D03*
Y65150D02*
D03*
Y65800D02*
D03*
Y67100D02*
D03*
Y67750D02*
D03*
Y68400D02*
D03*
Y69050D02*
D03*
Y69700D02*
D03*
Y71000D02*
D03*
Y71650D02*
D03*
Y72300D02*
D03*
Y72950D02*
D03*
X30350Y63850D02*
D03*
Y64500D02*
D03*
Y65150D02*
D03*
Y65800D02*
D03*
Y67100D02*
D03*
Y67750D02*
D03*
Y68400D02*
D03*
Y69050D02*
D03*
Y69700D02*
D03*
Y71000D02*
D03*
Y71650D02*
D03*
Y72300D02*
D03*
Y72950D02*
D03*
X31000Y63850D02*
D03*
Y64500D02*
D03*
Y65150D02*
D03*
Y65800D02*
D03*
Y67100D02*
D03*
Y67750D02*
D03*
Y68400D02*
D03*
Y69050D02*
D03*
Y69700D02*
D03*
Y71000D02*
D03*
Y71650D02*
D03*
Y72300D02*
D03*
Y72950D02*
D03*
X31650Y63850D02*
D03*
Y64500D02*
D03*
Y65150D02*
D03*
Y65800D02*
D03*
Y71000D02*
D03*
Y71650D02*
D03*
Y72300D02*
D03*
Y72950D02*
D03*
X32300Y63850D02*
D03*
Y64500D02*
D03*
Y65150D02*
D03*
Y65800D02*
D03*
Y66450D02*
D03*
Y67100D02*
D03*
Y67750D02*
D03*
Y68400D02*
D03*
Y69050D02*
D03*
Y69700D02*
D03*
Y70350D02*
D03*
Y71000D02*
D03*
Y71650D02*
D03*
Y72300D02*
D03*
Y72950D02*
D03*
X32950Y63850D02*
D03*
Y64500D02*
D03*
Y65150D02*
D03*
Y65800D02*
D03*
Y66450D02*
D03*
Y67100D02*
D03*
Y67750D02*
D03*
Y68400D02*
D03*
Y69050D02*
D03*
Y69700D02*
D03*
Y70350D02*
D03*
Y71000D02*
D03*
Y71650D02*
D03*
Y72300D02*
D03*
Y72950D02*
D03*
X33600Y63850D02*
D03*
Y64500D02*
D03*
Y65150D02*
D03*
Y65800D02*
D03*
Y66450D02*
D03*
Y67100D02*
D03*
Y67750D02*
D03*
Y68400D02*
D03*
Y69050D02*
D03*
Y69700D02*
D03*
Y70350D02*
D03*
Y71000D02*
D03*
Y71650D02*
D03*
Y72300D02*
D03*
Y72950D02*
D03*
X34250Y63850D02*
D03*
Y64500D02*
D03*
Y65150D02*
D03*
Y65800D02*
D03*
Y66450D02*
D03*
Y67100D02*
D03*
Y67750D02*
D03*
Y68400D02*
D03*
Y69050D02*
D03*
Y69700D02*
D03*
Y70350D02*
D03*
Y71000D02*
D03*
Y71650D02*
D03*
Y72300D02*
D03*
Y72950D02*
D03*
D26*
X40900Y20350D02*
D03*
Y25850D02*
D03*
X29100Y21350D02*
D03*
Y21850D02*
D03*
X40900Y20850D02*
D03*
Y27850D02*
D03*
Y27350D02*
D03*
Y26850D02*
D03*
Y26350D02*
D03*
Y25350D02*
D03*
Y24850D02*
D03*
Y24350D02*
D03*
Y23850D02*
D03*
Y23350D02*
D03*
Y22850D02*
D03*
Y22350D02*
D03*
Y21850D02*
D03*
Y21350D02*
D03*
X29100Y20350D02*
D03*
Y20850D02*
D03*
Y22350D02*
D03*
Y22850D02*
D03*
Y23350D02*
D03*
Y23850D02*
D03*
Y24350D02*
D03*
Y24850D02*
D03*
Y25350D02*
D03*
Y25850D02*
D03*
Y26350D02*
D03*
Y26850D02*
D03*
Y27350D02*
D03*
Y27850D02*
D03*
D27*
X38750Y30000D02*
D03*
X38250D02*
D03*
X35250D02*
D03*
X33750D02*
D03*
X34750D02*
D03*
X38750Y18200D02*
D03*
X38250D02*
D03*
X37750D02*
D03*
X37250D02*
D03*
X36750D02*
D03*
X36250D02*
D03*
X35750D02*
D03*
X35250D02*
D03*
X34750D02*
D03*
X34250D02*
D03*
X33750D02*
D03*
X33250D02*
D03*
X32750D02*
D03*
X32250D02*
D03*
X31750D02*
D03*
X31250D02*
D03*
Y30000D02*
D03*
X31750D02*
D03*
X32250D02*
D03*
X32750D02*
D03*
X33250D02*
D03*
X34250D02*
D03*
X35750D02*
D03*
X36250D02*
D03*
X36750D02*
D03*
X37250D02*
D03*
X37750D02*
D03*
D28*
X29000Y18100D02*
D03*
X41000Y30100D02*
D03*
D29*
X29000D02*
D03*
X41000Y18100D02*
D03*
D30*
X32500Y45450D02*
D03*
D31*
X33800Y46400D02*
D03*
Y45450D02*
D03*
Y44500D02*
D03*
X31200D02*
D03*
Y45450D02*
D03*
Y46400D02*
D03*
D32*
X34638Y55875D02*
D03*
X34013D02*
D03*
D33*
X11875Y61925D02*
D03*
Y61275D02*
D03*
Y60625D02*
D03*
X13575D02*
D03*
Y61925D02*
D03*
X11875Y65175D02*
D03*
Y64525D02*
D03*
Y63875D02*
D03*
X13575D02*
D03*
Y65175D02*
D03*
D34*
X23450Y15375D02*
D03*
X22500D02*
D03*
X21550D02*
D03*
Y13075D02*
D03*
X22500D02*
D03*
X23450D02*
D03*
D35*
X47650Y68850D02*
D03*
X47150D02*
D03*
X46650D02*
D03*
Y70150D02*
D03*
X47150D02*
D03*
X47650D02*
D03*
D36*
X28550Y8875D02*
D03*
Y7625D02*
D03*
D37*
X54025Y70800D02*
D03*
Y72050D02*
D03*
D38*
X48325Y59150D02*
D03*
X46975D02*
D03*
X48325Y61450D02*
D03*
X46975D02*
D03*
X48325Y65400D02*
D03*
X46975D02*
D03*
X48325Y63550D02*
D03*
X46975D02*
D03*
D39*
X34400Y35215D02*
D03*
X33050D02*
D03*
Y34165D02*
D03*
X34400D02*
D03*
X28925Y58375D02*
D03*
X30275D02*
D03*
Y59425D02*
D03*
X28925D02*
D03*
D40*
X38865Y34675D02*
D03*
X39965D02*
D03*
D41*
X44650Y71920D02*
D03*
X45150D02*
D03*
X45650D02*
D03*
X46150D02*
D03*
X46650D02*
D03*
X47150D02*
D03*
X47650D02*
D03*
X48150D02*
D03*
X48650D02*
D03*
X49150D02*
D03*
X49650D02*
D03*
X50150D02*
D03*
X25250Y10580D02*
D03*
X24750D02*
D03*
X24250D02*
D03*
X23750D02*
D03*
X23250D02*
D03*
X22750D02*
D03*
X22250D02*
D03*
X21750D02*
D03*
X21250D02*
D03*
X20750D02*
D03*
X20250D02*
D03*
X19750D02*
D03*
D42*
X4538Y64665D02*
D03*
Y65935D02*
D03*
Y67205D02*
D03*
Y68475D02*
D03*
X8602D02*
D03*
Y67205D02*
D03*
Y65935D02*
D03*
Y64665D02*
D03*
Y60855D02*
D03*
Y62125D02*
D03*
Y63395D02*
D03*
X4538D02*
D03*
Y62125D02*
D03*
Y60855D02*
D03*
D43*
X16550Y45380D02*
D03*
Y43680D02*
D03*
D44*
X26610Y21365D02*
D03*
X25210D02*
D03*
X44975Y64600D02*
D03*
X43575D02*
D03*
X42125Y32800D02*
D03*
X43525D02*
D03*
X14625Y70100D02*
D03*
X13225D02*
D03*
X39102Y78895D02*
D03*
X37702D02*
D03*
X28440Y33825D02*
D03*
X29840D02*
D03*
X44825Y27125D02*
D03*
X43425D02*
D03*
D45*
X36675Y69225D02*
D03*
X35775D02*
D03*
X50425Y68425D02*
D03*
X49525D02*
D03*
X22725Y72675D02*
D03*
X23625D02*
D03*
X12575Y73800D02*
D03*
X13475D02*
D03*
X40715Y36225D02*
D03*
X39815D02*
D03*
X35470Y52165D02*
D03*
X34570D02*
D03*
X38115Y36225D02*
D03*
X39015D02*
D03*
X34400Y36290D02*
D03*
X33500D02*
D03*
X26900Y20225D02*
D03*
X26000D02*
D03*
X33800Y47700D02*
D03*
X32900D02*
D03*
X28935Y32715D02*
D03*
X29835D02*
D03*
X22725Y64925D02*
D03*
X23625D02*
D03*
X39875Y15550D02*
D03*
X40775D02*
D03*
X22725Y68700D02*
D03*
X23625D02*
D03*
X36675Y67950D02*
D03*
X35775D02*
D03*
X43350Y28250D02*
D03*
X44250D02*
D03*
X36675Y71425D02*
D03*
X35775D02*
D03*
X22725Y67225D02*
D03*
X23625D02*
D03*
X22725Y69925D02*
D03*
X23625D02*
D03*
X33550Y74150D02*
D03*
X32650D02*
D03*
X36675Y70525D02*
D03*
X35775D02*
D03*
D46*
X25700Y74450D02*
D03*
Y75350D02*
D03*
X24375Y74450D02*
D03*
Y75350D02*
D03*
X27075Y61425D02*
D03*
Y62325D02*
D03*
X31425Y59350D02*
D03*
Y58450D02*
D03*
X22250Y80050D02*
D03*
Y79150D02*
D03*
X27800Y58425D02*
D03*
Y59325D02*
D03*
X31925Y34165D02*
D03*
Y35065D02*
D03*
X50275Y51050D02*
D03*
Y51950D02*
D03*
X26760Y26840D02*
D03*
Y27740D02*
D03*
X30925Y61425D02*
D03*
Y62325D02*
D03*
X36100Y44125D02*
D03*
Y45025D02*
D03*
X11850Y70500D02*
D03*
Y71400D02*
D03*
X27900Y75350D02*
D03*
Y74450D02*
D03*
X24900Y61425D02*
D03*
Y62325D02*
D03*
X34175Y61425D02*
D03*
Y62325D02*
D03*
X25825Y61425D02*
D03*
Y62325D02*
D03*
X52825Y71150D02*
D03*
Y72050D02*
D03*
X31325Y75350D02*
D03*
Y74450D02*
D03*
X29025Y75350D02*
D03*
Y74450D02*
D03*
X35425Y61425D02*
D03*
Y62325D02*
D03*
D47*
X36425Y6950D02*
D03*
Y6000D02*
D03*
Y5050D02*
D03*
X38625D02*
D03*
Y6950D02*
D03*
D48*
X32625Y5025D02*
D03*
X31675Y7225D02*
D03*
X33575D02*
D03*
D49*
X40250Y5975D02*
D03*
Y5075D02*
D03*
X34850Y6325D02*
D03*
Y7225D02*
D03*
X31400Y2200D02*
D03*
Y3100D02*
D03*
X37825Y2025D02*
D03*
Y2925D02*
D03*
X55925Y74400D02*
D03*
Y75300D02*
D03*
X49425Y69300D02*
D03*
Y70200D02*
D03*
X35327Y77495D02*
D03*
Y76595D02*
D03*
X57425Y74375D02*
D03*
Y75275D02*
D03*
X50500Y69300D02*
D03*
Y70200D02*
D03*
X39400Y66700D02*
D03*
Y65800D02*
D03*
X2325Y62125D02*
D03*
Y63025D02*
D03*
X26675Y75350D02*
D03*
Y74450D02*
D03*
X62470Y75265D02*
D03*
Y74365D02*
D03*
X60970D02*
D03*
Y75265D02*
D03*
X38350Y66700D02*
D03*
Y65800D02*
D03*
X30350Y75350D02*
D03*
Y74450D02*
D03*
D50*
X49675Y45700D02*
D03*
Y44300D02*
D03*
Y41825D02*
D03*
Y43225D02*
D03*
X52550Y52025D02*
D03*
Y53425D02*
D03*
X18375Y14175D02*
D03*
Y12775D02*
D03*
X17000Y14175D02*
D03*
Y12775D02*
D03*
D51*
X49395Y51678D02*
D03*
Y51053D02*
D03*
D52*
X43250Y58700D02*
D03*
X44950D02*
D03*
X20375Y39030D02*
D03*
X18675D02*
D03*
D53*
X34975Y44125D02*
D03*
Y45525D02*
D03*
X30025Y46775D02*
D03*
Y45375D02*
D03*
X40300Y75050D02*
D03*
Y76450D02*
D03*
X25660Y26840D02*
D03*
Y28240D02*
D03*
X30025Y8925D02*
D03*
Y7525D02*
D03*
M02*
