G04*
G04 #@! TF.GenerationSoftware,Altium Limited,Altium Designer,21.6.4 (81)*
G04*
G04 Layer_Color=128*
%FSLAX43Y43*%
%MOMM*%
G71*
G04*
G04 #@! TF.SameCoordinates,9341246B-9533-4F66-ACE2-302FB49430CD*
G04*
G04*
G04 #@! TF.FilePolarity,Positive*
G04*
G01*
G75*
%ADD11C,0.100*%
%ADD134C,0.051*%
D11*
X0Y4000D02*
G03*
X2000Y2000I2000J0D01*
G01*
X2000Y82500D02*
G03*
X0Y80500I0J-2000D01*
G01*
X70000D02*
G03*
X68000Y82500I-2000J0D01*
G01*
X68000Y2000D02*
G03*
X70000Y4000I0J2000D01*
G01*
X11500Y2000D02*
X13500Y0D01*
X46500D01*
X48500Y2000D01*
Y2000D01*
X68000D01*
X2000Y82500D02*
X68000D01*
X2000Y2000D02*
X11500D01*
X0Y4000D02*
Y58000D01*
Y80500D01*
X70000Y4000D02*
Y58000D01*
Y80500D01*
X70000Y80500D02*
X70000Y80500D01*
D134*
X43475Y73910D02*
X44125D01*
X43800Y73585D02*
Y74235D01*
X42660Y78610D02*
X43160D01*
X42910Y78360D02*
Y78860D01*
X51640Y78610D02*
X52140D01*
X51890Y78360D02*
Y78860D01*
X43020Y75160D02*
X43520D01*
X43270Y74910D02*
Y75410D01*
X51280Y75160D02*
X51780D01*
X51530Y74910D02*
Y75410D01*
X50675Y73910D02*
X51325D01*
X51000Y73585D02*
Y74235D01*
X25775Y8600D02*
X26425D01*
X26100Y8275D02*
Y8925D01*
X26740Y3900D02*
X27240D01*
X26990Y3650D02*
Y4150D01*
X17760Y3900D02*
X18260D01*
X18010Y3650D02*
Y4150D01*
X26380Y7350D02*
X26880D01*
X26630Y7100D02*
Y7600D01*
X18120Y7350D02*
X18620D01*
X18370Y7100D02*
Y7600D01*
X18575Y8600D02*
X19225D01*
X18900Y8275D02*
Y8925D01*
X34500Y27200D02*
X35500D01*
X35000Y26700D02*
Y27700D01*
X34500Y21000D02*
X35500D01*
X35000Y20500D02*
Y21500D01*
X6085Y67840D02*
X7055D01*
X6570Y67355D02*
Y68325D01*
X6085Y61490D02*
X7055D01*
X6570Y61005D02*
Y61975D01*
X5975Y70110D02*
X7165D01*
X6570Y69515D02*
Y70705D01*
X5975Y59220D02*
X7165D01*
X6570Y58625D02*
Y59815D01*
X63710Y20280D02*
X64710D01*
X64210Y19780D02*
Y20780D01*
X63710Y17740D02*
X64710D01*
X64210Y17240D02*
Y18240D01*
X66250Y20280D02*
X67250D01*
X66750Y19780D02*
Y20780D01*
X66250Y17740D02*
X67250D01*
X66750Y17240D02*
Y18240D01*
X66250Y10120D02*
X67250D01*
X66750Y9620D02*
Y10620D01*
X66250Y15200D02*
X67250D01*
X66750Y14700D02*
Y15700D01*
X66250Y12660D02*
X67250D01*
X66750Y12160D02*
Y13160D01*
X63710Y10120D02*
X64710D01*
X64210Y9620D02*
Y10620D01*
X63710Y12660D02*
X64710D01*
X64210Y12160D02*
Y13160D01*
X63710Y15200D02*
X64710D01*
X64210Y14700D02*
Y15700D01*
X66250Y5040D02*
X67250D01*
X66750Y4540D02*
Y5540D01*
X66250Y7580D02*
X67250D01*
X66750Y7080D02*
Y8080D01*
X63710Y5040D02*
X64710D01*
X64210Y4540D02*
Y5540D01*
X63710Y7580D02*
X64710D01*
X64210Y7080D02*
Y8080D01*
X63710Y32980D02*
X64710D01*
X64210Y32480D02*
Y33480D01*
X63710Y30440D02*
X64710D01*
X64210Y29940D02*
Y30940D01*
X66250Y32980D02*
X67250D01*
X66750Y32480D02*
Y33480D01*
X66250Y30440D02*
X67250D01*
X66750Y29940D02*
Y30940D01*
X66250Y22820D02*
X67250D01*
X66750Y22320D02*
Y23320D01*
X66250Y27900D02*
X67250D01*
X66750Y27400D02*
Y28400D01*
X66250Y25360D02*
X67250D01*
X66750Y24860D02*
Y25860D01*
X63710Y22820D02*
X64710D01*
X64210Y22320D02*
Y23320D01*
X63710Y25360D02*
X64710D01*
X64210Y24860D02*
Y25860D01*
X63710Y27900D02*
X64710D01*
X64210Y27400D02*
Y28400D01*
X63710Y40600D02*
X64710D01*
X64210Y40100D02*
Y41100D01*
X63710Y38060D02*
X64710D01*
X64210Y37560D02*
Y38560D01*
X63710Y35520D02*
X64710D01*
X64210Y35020D02*
Y36020D01*
X66250Y38060D02*
X67250D01*
X66750Y37560D02*
Y38560D01*
X66250Y40600D02*
X67250D01*
X66750Y40100D02*
Y41100D01*
X66250Y35520D02*
X67250D01*
X66750Y35020D02*
Y36020D01*
X66250Y43140D02*
X67250D01*
X66750Y42640D02*
Y43640D01*
X66250Y50760D02*
X67250D01*
X66750Y50260D02*
Y51260D01*
X66250Y48220D02*
X67250D01*
X66750Y47720D02*
Y48720D01*
X66250Y45680D02*
X67250D01*
X66750Y45180D02*
Y46180D01*
X63710Y43140D02*
X64710D01*
X64210Y42640D02*
Y43640D01*
X63710Y45680D02*
X64710D01*
X64210Y45180D02*
Y46180D01*
X63710Y48220D02*
X64710D01*
X64210Y47720D02*
Y48720D01*
X63710Y50760D02*
X64710D01*
X64210Y50260D02*
Y51260D01*
X58625Y68025D02*
X59625D01*
X59125Y67525D02*
Y68525D01*
X56085Y68025D02*
X57085D01*
X56585Y67525D02*
Y68525D01*
X56085Y65485D02*
X57085D01*
X56585Y64985D02*
Y65985D01*
X56085Y57865D02*
X57085D01*
X56585Y57365D02*
Y58365D01*
X56085Y60405D02*
X57085D01*
X56585Y59905D02*
Y60905D01*
X56085Y62945D02*
X57085D01*
X56585Y62445D02*
Y63445D01*
X58625Y65485D02*
X59625D01*
X59125Y64985D02*
Y65985D01*
X58625Y62945D02*
X59625D01*
X59125Y62445D02*
Y63445D01*
X58625Y60405D02*
X59625D01*
X59125Y59905D02*
Y60905D01*
X58625Y57865D02*
X59625D01*
X59125Y57365D02*
Y58365D01*
X10690Y80040D02*
X11690D01*
X11190Y79540D02*
Y80540D01*
X13230Y80040D02*
X14230D01*
X13730Y79540D02*
Y80540D01*
X15770Y80040D02*
X16770D01*
X16270Y79540D02*
Y80540D01*
X18310Y80040D02*
X19310D01*
X18810Y79540D02*
Y80540D01*
X2750Y78700D02*
X3750D01*
X3250Y78200D02*
Y79200D01*
X2750Y76160D02*
X3750D01*
X3250Y75660D02*
Y76660D01*
X24230Y80040D02*
X25230D01*
X24730Y79540D02*
Y80540D01*
X26770Y80040D02*
X27770D01*
X27270Y79540D02*
Y80540D01*
X58630Y49744D02*
X59630D01*
X59130Y49244D02*
Y50244D01*
X58630Y47204D02*
X59630D01*
X59130Y46704D02*
Y47704D01*
X58630Y44664D02*
X59630D01*
X59130Y44164D02*
Y45164D01*
X58630Y42124D02*
X59630D01*
X59130Y41624D02*
Y42624D01*
X58630Y39584D02*
X59630D01*
X59130Y39084D02*
Y40084D01*
X58630Y37044D02*
X59630D01*
X59130Y36544D02*
Y37544D01*
X58630Y34504D02*
X59630D01*
X59130Y34004D02*
Y35004D01*
X58630Y31964D02*
X59630D01*
X59130Y31464D02*
Y32464D01*
X58630Y29424D02*
X59630D01*
X59130Y28924D02*
Y29924D01*
X58630Y26884D02*
X59630D01*
X59130Y26384D02*
Y27384D01*
X58630Y22820D02*
X59630D01*
X59130Y22320D02*
Y23320D01*
X58630Y20280D02*
X59630D01*
X59130Y19780D02*
Y20780D01*
X58630Y17740D02*
X59630D01*
X59130Y17240D02*
Y18240D01*
X58630Y15200D02*
X59630D01*
X59130Y14700D02*
Y15700D01*
X58630Y12660D02*
X59630D01*
X59130Y12160D02*
Y13160D01*
X58630Y10120D02*
X59630D01*
X59130Y9620D02*
Y10620D01*
X58630Y7580D02*
X59630D01*
X59130Y7080D02*
Y8080D01*
X58630Y5040D02*
X59630D01*
X59130Y4540D02*
Y5540D01*
X10370Y5040D02*
X11370D01*
X10870Y4540D02*
Y5540D01*
X10370Y7580D02*
X11370D01*
X10870Y7080D02*
Y8080D01*
X10370Y10120D02*
X11370D01*
X10870Y9620D02*
Y10620D01*
X10370Y12660D02*
X11370D01*
X10870Y12160D02*
Y13160D01*
X10370Y15200D02*
X11370D01*
X10870Y14700D02*
Y15700D01*
X10370Y17740D02*
X11370D01*
X10870Y17240D02*
Y18240D01*
X33700Y41225D02*
X34700D01*
X34200Y40725D02*
Y41725D01*
X31160Y41225D02*
X32160D01*
X31660Y40725D02*
Y41725D01*
X66250Y78700D02*
X67250D01*
X66750Y78200D02*
Y79200D01*
X66250Y76160D02*
X67250D01*
X66750Y75660D02*
Y76660D01*
X10370Y22820D02*
X11370D01*
X10870Y22320D02*
Y23320D01*
X10370Y25360D02*
X11370D01*
X10870Y24860D02*
Y25860D01*
X10370Y27900D02*
X11370D01*
X10870Y27400D02*
Y28400D01*
X10370Y30440D02*
X11370D01*
X10870Y29940D02*
Y30940D01*
X10370Y32980D02*
X11370D01*
X10870Y32480D02*
Y33480D01*
X10370Y35520D02*
X11370D01*
X10870Y35020D02*
Y36020D01*
X10370Y38060D02*
X11370D01*
X10870Y37560D02*
Y38560D01*
X10370Y40600D02*
X11370D01*
X10870Y40100D02*
Y41100D01*
X2750Y20280D02*
X3750D01*
X3250Y19780D02*
Y20780D01*
X2750Y17740D02*
X3750D01*
X3250Y17240D02*
Y18240D01*
X5290Y20280D02*
X6290D01*
X5790Y19780D02*
Y20780D01*
X5290Y17740D02*
X6290D01*
X5790Y17240D02*
Y18240D01*
X5290Y10120D02*
X6290D01*
X5790Y9620D02*
Y10620D01*
X5290Y15200D02*
X6290D01*
X5790Y14700D02*
Y15700D01*
X5290Y12660D02*
X6290D01*
X5790Y12160D02*
Y13160D01*
X2750Y10120D02*
X3750D01*
X3250Y9620D02*
Y10620D01*
X2750Y12660D02*
X3750D01*
X3250Y12160D02*
Y13160D01*
X2750Y15200D02*
X3750D01*
X3250Y14700D02*
Y15700D01*
X5290Y5040D02*
X6290D01*
X5790Y4540D02*
Y5540D01*
X5290Y7580D02*
X6290D01*
X5790Y7080D02*
Y8080D01*
X2750Y5040D02*
X3750D01*
X3250Y4540D02*
Y5540D01*
X2750Y7580D02*
X3750D01*
X3250Y7080D02*
Y8080D01*
X2750Y32980D02*
X3750D01*
X3250Y32480D02*
Y33480D01*
X2750Y30440D02*
X3750D01*
X3250Y29940D02*
Y30940D01*
X5290Y32980D02*
X6290D01*
X5790Y32480D02*
Y33480D01*
X5290Y30440D02*
X6290D01*
X5790Y29940D02*
Y30940D01*
X5290Y22820D02*
X6290D01*
X5790Y22320D02*
Y23320D01*
X5290Y27900D02*
X6290D01*
X5790Y27400D02*
Y28400D01*
X5290Y25360D02*
X6290D01*
X5790Y24860D02*
Y25860D01*
X2750Y22820D02*
X3750D01*
X3250Y22320D02*
Y23320D01*
X2750Y25360D02*
X3750D01*
X3250Y24860D02*
Y25860D01*
X2750Y27900D02*
X3750D01*
X3250Y27400D02*
Y28400D01*
X2750Y40600D02*
X3750D01*
X3250Y40100D02*
Y41100D01*
X2750Y38060D02*
X3750D01*
X3250Y37560D02*
Y38560D01*
X2750Y35520D02*
X3750D01*
X3250Y35020D02*
Y36020D01*
X5290Y38060D02*
X6290D01*
X5790Y37560D02*
Y38560D01*
X5290Y40600D02*
X6290D01*
X5790Y40100D02*
Y41100D01*
X5290Y35520D02*
X6290D01*
X5790Y35020D02*
Y36020D01*
X5290Y43140D02*
X6290D01*
X5790Y42640D02*
Y43640D01*
X5290Y50760D02*
X6290D01*
X5790Y50260D02*
Y51260D01*
X5290Y48220D02*
X6290D01*
X5790Y47720D02*
Y48720D01*
X5290Y45680D02*
X6290D01*
X5790Y45180D02*
Y46180D01*
X2750Y43140D02*
X3750D01*
X3250Y42640D02*
Y43640D01*
X2750Y45680D02*
X3750D01*
X3250Y45180D02*
Y46180D01*
X2750Y48220D02*
X3750D01*
X3250Y47720D02*
Y48720D01*
X2750Y50760D02*
X3750D01*
X3250Y50260D02*
Y51260D01*
X40270Y41225D02*
X41270D01*
X40770Y40725D02*
Y41725D01*
X37730Y41225D02*
X38730D01*
X38230Y40725D02*
Y41725D01*
X57530Y53300D02*
X60730D01*
X59130Y51700D02*
Y54900D01*
X42290Y2500D02*
X45490D01*
X43890Y900D02*
Y4100D01*
X9270Y54570D02*
X12470D01*
X10870Y52970D02*
Y56170D01*
X27725Y5075D02*
X27925D01*
X27825Y4975D02*
Y5175D01*
X16900Y12050D02*
X17100D01*
X17000Y11950D02*
Y12150D01*
X18275Y12050D02*
X18475D01*
X18375Y11950D02*
Y12150D01*
X39775Y78125D02*
X39975D01*
X39875Y78025D02*
Y78225D01*
X52050Y80400D02*
X52250D01*
X52150Y80300D02*
Y80500D01*
X48800Y74250D02*
X49000D01*
X48900Y74150D02*
Y74350D01*
X46050Y74250D02*
X46250D01*
X46150Y74150D02*
Y74350D01*
X23650Y8275D02*
X23850D01*
X23750Y8175D02*
Y8375D01*
X20900Y8250D02*
X21100D01*
X21000Y8150D02*
Y8350D01*
X46050Y71575D02*
X46250D01*
X46150Y71475D02*
Y71675D01*
X48550Y72525D02*
X48750D01*
X48650Y72425D02*
Y72625D01*
X47050Y72500D02*
X47250D01*
X47150Y72400D02*
Y72600D01*
X50050Y72525D02*
X50250D01*
X50150Y72425D02*
Y72625D01*
X47800Y74325D02*
X48000D01*
X47900Y74225D02*
Y74425D01*
X46800Y74325D02*
X47000D01*
X46900Y74225D02*
Y74425D01*
X44050Y75050D02*
X44250D01*
X44150Y74950D02*
Y75150D01*
X23650Y10900D02*
X23850D01*
X23750Y10800D02*
Y11000D01*
X21150Y10875D02*
X21350D01*
X21250Y10775D02*
Y10975D01*
X21375Y11425D02*
X21575D01*
X21475Y11325D02*
Y11525D01*
X21900Y8250D02*
X22100D01*
X22000Y8150D02*
Y8350D01*
X22650Y10175D02*
X22850D01*
X22750Y10075D02*
Y10275D01*
X25150Y10100D02*
X25350D01*
X25250Y10000D02*
Y10200D01*
X19650Y10125D02*
X19850D01*
X19750Y10025D02*
Y10225D01*
X22900Y8250D02*
X23100D01*
X23000Y8150D02*
Y8350D01*
X27250Y23050D02*
X27450D01*
X27350Y22950D02*
Y23150D01*
X17775Y19050D02*
X17975D01*
X17875Y18950D02*
Y19150D01*
X16130Y18100D02*
X16330D01*
X16230Y18000D02*
Y18200D01*
X15725Y16475D02*
X15925D01*
X15825Y16375D02*
Y16575D01*
X17550Y21525D02*
X17750D01*
X17650Y21425D02*
Y21625D01*
X20150Y20575D02*
X20350D01*
X20250Y20475D02*
Y20675D01*
X19325Y21050D02*
X19525D01*
X19425Y20950D02*
Y21150D01*
X27675Y17300D02*
X27875D01*
X27775Y17200D02*
Y17400D01*
X27600Y18075D02*
X27800D01*
X27700Y17975D02*
Y18175D01*
X26450Y18800D02*
X26650D01*
X26550Y18700D02*
Y18900D01*
X27150Y18600D02*
X27350D01*
X27250Y18500D02*
Y18700D01*
X27150Y19200D02*
X27350D01*
X27250Y19100D02*
Y19300D01*
X39300Y21675D02*
X39500D01*
X39400Y21575D02*
Y21775D01*
X20825Y33950D02*
X21025D01*
X20925Y33850D02*
Y34050D01*
X20825Y32575D02*
X21025D01*
X20925Y32475D02*
Y32675D01*
X24800Y34625D02*
X25000D01*
X24900Y34525D02*
Y34725D01*
X24050Y34625D02*
X24250D01*
X24150Y34525D02*
Y34725D01*
X22250Y38175D02*
X22450D01*
X22350Y38075D02*
Y38275D01*
X21825Y37650D02*
X22025D01*
X21925Y37550D02*
Y37750D01*
X21325Y38500D02*
X21525D01*
X21425Y38400D02*
Y38600D01*
X23650Y38175D02*
X23850D01*
X23750Y38075D02*
Y38275D01*
X24250Y38175D02*
X24450D01*
X24350Y38075D02*
Y38275D01*
X24100Y23050D02*
X24300D01*
X24200Y22950D02*
Y23150D01*
X22750Y25850D02*
X22950D01*
X22850Y25750D02*
Y25950D01*
X24125Y25000D02*
X24325D01*
X24225Y24900D02*
Y25100D01*
X25575Y26150D02*
X25775D01*
X25675Y26050D02*
Y26250D01*
X27164Y20436D02*
X27364D01*
X27264Y20336D02*
Y20536D01*
X23625Y19650D02*
X23825D01*
X23725Y19550D02*
Y19750D01*
X15275Y12600D02*
X15475D01*
X15375Y12500D02*
Y12700D01*
X32651Y14676D02*
X32851D01*
X32751Y14576D02*
Y14776D01*
X47600Y9770D02*
X47800D01*
X47700Y9670D02*
Y9870D01*
X57375Y13075D02*
X57575D01*
X57475Y12975D02*
Y13175D01*
X56225Y19025D02*
X56425D01*
X56325Y18925D02*
Y19125D01*
X56475Y21550D02*
X56675D01*
X56575Y21450D02*
Y21650D01*
X56725Y13075D02*
X56925D01*
X56825Y12975D02*
Y13175D01*
X52275Y11425D02*
X52475D01*
X52375Y11325D02*
Y11525D01*
X36450Y14255D02*
X36650D01*
X36550Y14155D02*
Y14355D01*
X37825Y14255D02*
X38025D01*
X37925Y14155D02*
Y14355D01*
X20550Y12850D02*
X20750D01*
X20650Y12750D02*
Y12950D01*
X25225Y11950D02*
X25425D01*
X25325Y11850D02*
Y12050D01*
X41100Y74400D02*
X41300D01*
X41200Y74300D02*
Y74500D01*
X40325Y80550D02*
X40525D01*
X40425Y80450D02*
Y80650D01*
X63600Y68325D02*
X63800D01*
X63700Y68225D02*
Y68425D01*
X27476Y70528D02*
X27676D01*
X27576Y70428D02*
Y70628D01*
X28950Y70525D02*
X29150D01*
X29050Y70425D02*
Y70625D01*
X29775Y61475D02*
X29975D01*
X29875Y61375D02*
Y61575D01*
X31700Y62775D02*
X31900D01*
X31800Y62675D02*
Y62875D01*
X30475Y63300D02*
X30675D01*
X30575Y63200D02*
Y63400D01*
X31725Y70200D02*
X31925D01*
X31825Y70100D02*
Y70300D01*
X27475Y69700D02*
X27675D01*
X27575Y69600D02*
Y69800D01*
X34775Y67950D02*
X34975D01*
X34875Y67850D02*
Y68050D01*
X26051Y73854D02*
X26251D01*
X26151Y73754D02*
Y73954D01*
X27325Y74000D02*
X27525D01*
X27425Y73900D02*
Y74100D01*
X20600Y67700D02*
X20800D01*
X20700Y67600D02*
Y67800D01*
X2225Y63750D02*
X2425D01*
X2325Y63650D02*
Y63850D01*
X28400Y76200D02*
X28600D01*
X28500Y76100D02*
Y76300D01*
X27700Y75975D02*
X27900D01*
X27800Y75875D02*
Y76075D01*
X29025Y75975D02*
X29225D01*
X29125Y75875D02*
Y76075D01*
X24400Y75875D02*
X24600D01*
X24500Y75775D02*
Y75975D01*
X23050Y74450D02*
X23250D01*
X23150Y74350D02*
Y74550D01*
X21125Y76650D02*
X21325D01*
X21225Y76550D02*
Y76750D01*
X41100Y75050D02*
X41300D01*
X41200Y74950D02*
Y75150D01*
X2550Y67200D02*
X2750D01*
X2650Y67100D02*
Y67300D01*
X2550Y65925D02*
X2750D01*
X2650Y65825D02*
Y66025D01*
X2550Y64650D02*
X2750D01*
X2650Y64550D02*
Y64750D01*
X10725Y61275D02*
X10925D01*
X10825Y61175D02*
Y61375D01*
X14650Y66450D02*
X14850D01*
X14750Y66350D02*
Y66550D01*
X14650Y65325D02*
X14850D01*
X14750Y65225D02*
Y65425D01*
X10725Y64525D02*
X10925D01*
X10825Y64425D02*
Y64625D01*
X14650Y64300D02*
X14850D01*
X14750Y64200D02*
Y64400D01*
X14650Y63225D02*
X14850D01*
X14750Y63125D02*
Y63325D01*
X14400Y61925D02*
X14600D01*
X14500Y61825D02*
Y62025D01*
X12075Y62425D02*
X12275D01*
X12175Y62325D02*
Y62525D01*
X11500Y59725D02*
X11700D01*
X11600Y59625D02*
Y59825D01*
X26450Y60150D02*
X26650D01*
X26550Y60050D02*
Y60250D01*
X14600Y59425D02*
X14800D01*
X14700Y59325D02*
Y59525D01*
X16750Y66450D02*
X16950D01*
X16850Y66350D02*
Y66550D01*
X20500Y70950D02*
X20700D01*
X20600Y70850D02*
Y71050D01*
X19925Y70300D02*
X20125D01*
X20025Y70200D02*
Y70400D01*
X19750Y65375D02*
X19950D01*
X19850Y65275D02*
Y65475D01*
X17075Y61650D02*
X17275D01*
X17175Y61550D02*
Y61750D01*
X17075Y60550D02*
X17275D01*
X17175Y60450D02*
Y60650D01*
X38850Y33550D02*
X39050D01*
X38950Y33450D02*
Y33650D01*
X40000Y33550D02*
X40200D01*
X40100Y33450D02*
Y33650D01*
X14300Y77600D02*
X14500D01*
X14400Y77500D02*
Y77700D01*
X18375Y77750D02*
X18575D01*
X18475Y77650D02*
Y77850D01*
X21400Y80075D02*
X21600D01*
X21500Y79975D02*
Y80175D01*
X11000Y71425D02*
X11200D01*
X11100Y71325D02*
Y71525D01*
X14200Y74625D02*
X14400D01*
X14300Y74525D02*
Y74725D01*
X13375Y74550D02*
X13575D01*
X13475Y74450D02*
Y74650D01*
X11025Y70500D02*
X11225D01*
X11125Y70400D02*
Y70600D01*
X14550Y69250D02*
X14750D01*
X14650Y69150D02*
Y69350D01*
X13125Y69250D02*
X13325D01*
X13225Y69150D02*
Y69350D01*
X15925Y69900D02*
X16125D01*
X16025Y69800D02*
Y70000D01*
X21650Y72450D02*
X21850D01*
X21750Y72350D02*
Y72550D01*
X21850Y73025D02*
X22050D01*
X21950Y72925D02*
Y73125D01*
X17025Y69875D02*
X17225D01*
X17125Y69775D02*
Y69975D01*
X17500Y73800D02*
X17700D01*
X17600Y73700D02*
Y73900D01*
X24525Y66575D02*
X24725D01*
X24625Y66475D02*
Y66675D01*
X31825Y69525D02*
X32025D01*
X31925Y69425D02*
Y69625D01*
X29500Y74450D02*
X29700D01*
X29600Y74350D02*
Y74550D01*
X31225Y75975D02*
X31425D01*
X31325Y75875D02*
Y76075D01*
X25025Y74450D02*
X25225D01*
X25125Y74350D02*
Y74550D01*
X23650Y74450D02*
X23850D01*
X23750Y74350D02*
Y74550D01*
X30250Y75975D02*
X30450D01*
X30350Y75875D02*
Y76075D01*
X34075Y74150D02*
X34275D01*
X34175Y74050D02*
Y74250D01*
X22000Y63600D02*
X22200D01*
X22100Y63500D02*
Y63700D01*
X26875Y59325D02*
X27075D01*
X26975Y59225D02*
Y59425D01*
X31500Y57500D02*
X31700D01*
X31600Y57400D02*
Y57600D01*
X32225Y58825D02*
X32425D01*
X32325Y58725D02*
Y58925D01*
X32225Y57900D02*
X32425D01*
X32325Y57800D02*
Y58000D01*
X32225Y60200D02*
X32425D01*
X32325Y60100D02*
Y60300D01*
X28180Y60480D02*
X28380D01*
X28280Y60380D02*
Y60580D01*
X26875Y57500D02*
X27075D01*
X26975Y57400D02*
Y57600D01*
X28180Y62870D02*
X28380D01*
X28280Y62770D02*
Y62970D01*
X24200Y61425D02*
X24400D01*
X24300Y61325D02*
Y61525D01*
X24200Y62325D02*
X24400D01*
X24300Y62225D02*
Y62425D01*
X39775Y78900D02*
X39975D01*
X39875Y78800D02*
Y79000D01*
X35900Y73625D02*
X36100D01*
X36000Y73525D02*
Y73725D01*
X39700Y80550D02*
X39900D01*
X39800Y80450D02*
Y80650D01*
X36775Y78900D02*
X36975D01*
X36875Y78800D02*
Y79000D01*
X41125Y76450D02*
X41325D01*
X41225Y76350D02*
Y76550D01*
X49400Y67575D02*
X49600D01*
X49500Y67475D02*
Y67675D01*
X39802Y69116D02*
X40002D01*
X39902Y69016D02*
Y69216D01*
X40025Y68475D02*
X40225D01*
X40125Y68375D02*
Y68575D01*
X37150Y68075D02*
X37350D01*
X37250Y67975D02*
Y68175D01*
X37200Y71425D02*
X37400D01*
X37300Y71325D02*
Y71525D01*
X34700Y71425D02*
X34900D01*
X34800Y71325D02*
Y71525D01*
X53225Y69025D02*
X53425D01*
X53325Y68925D02*
Y69125D01*
X50325Y67850D02*
X50525D01*
X50425Y67750D02*
Y67950D01*
X52000Y71150D02*
X52200D01*
X52100Y71050D02*
Y71250D01*
X51975Y72050D02*
X52175D01*
X52075Y71950D02*
Y72150D01*
X34675Y72300D02*
X34875D01*
X34775Y72200D02*
Y72400D01*
X34675Y72950D02*
X34875D01*
X34775Y72850D02*
Y73050D01*
X46875Y68200D02*
X47075D01*
X46975Y68100D02*
Y68300D01*
X47725Y68200D02*
X47925D01*
X47825Y68100D02*
Y68300D01*
X42175Y58700D02*
X42375D01*
X42275Y58600D02*
Y58800D01*
X45350Y65500D02*
X45550D01*
X45450Y65400D02*
Y65600D01*
X44625Y65500D02*
X44825D01*
X44725Y65400D02*
Y65600D01*
X49720Y59175D02*
X49920D01*
X49820Y59075D02*
Y59275D01*
X51830Y59175D02*
X52030D01*
X51930Y59075D02*
Y59275D01*
X50775Y58575D02*
X50975D01*
X50875Y58475D02*
Y58675D01*
X50775Y59775D02*
X50975D01*
X50875Y59675D02*
Y59875D01*
X39300Y64050D02*
X39500D01*
X39400Y63950D02*
Y64150D01*
X35800Y48775D02*
X36000D01*
X35900Y48675D02*
Y48875D01*
X52450Y51350D02*
X52650D01*
X52550Y51250D02*
Y51450D01*
X50175Y52550D02*
X50375D01*
X50275Y52450D02*
Y52650D01*
X49300Y52237D02*
X49500D01*
X49400Y52138D02*
Y52338D01*
X53475Y80325D02*
X53675D01*
X53575Y80225D02*
Y80425D01*
X54765Y80050D02*
X54965D01*
X54865Y79950D02*
Y80150D01*
X54770Y79460D02*
X54970D01*
X54870Y79360D02*
Y79560D01*
X54770Y80635D02*
X54970D01*
X54870Y80535D02*
Y80735D01*
X58385Y80050D02*
X58585D01*
X58485Y79950D02*
Y80150D01*
X58380Y80640D02*
X58580D01*
X58480Y80540D02*
Y80740D01*
X58380Y79465D02*
X58580D01*
X58480Y79365D02*
Y79565D01*
X26000Y57100D02*
X26200D01*
X26100Y57000D02*
Y57200D01*
X22000Y67025D02*
X22200D01*
X22100Y66925D02*
Y67125D01*
X23075Y68100D02*
X23275D01*
X23175Y68000D02*
Y68200D01*
X22000Y68700D02*
X22200D01*
X22100Y68600D02*
Y68800D01*
X22000Y69925D02*
X22200D01*
X22100Y69825D02*
Y70025D01*
X43150Y8400D02*
X43350D01*
X43250Y8300D02*
Y8500D01*
X43750Y8650D02*
X43950D01*
X43850Y8550D02*
Y8750D01*
X63600Y67725D02*
X63800D01*
X63700Y67625D02*
Y67825D01*
X27725Y5850D02*
X27925D01*
X27825Y5750D02*
Y5950D01*
X30575Y3100D02*
X30775D01*
X30675Y3000D02*
Y3200D01*
X13200Y29750D02*
X13400D01*
X13300Y29650D02*
Y29850D01*
X13650Y28950D02*
X13850D01*
X13750Y28850D02*
Y29050D01*
X12225Y30775D02*
X12425D01*
X12325Y30675D02*
Y30875D01*
X24825Y31725D02*
X25025D01*
X24925Y31625D02*
Y31825D01*
X23475Y28200D02*
X23675D01*
X23575Y28100D02*
Y28300D01*
X20475Y28925D02*
X20675D01*
X20575Y28825D02*
Y29025D01*
X37775Y44000D02*
X37975D01*
X37875Y43900D02*
Y44100D01*
X34425Y47850D02*
X34625D01*
X34525Y47750D02*
Y47950D01*
X34400Y47225D02*
X34600D01*
X34500Y47125D02*
Y47325D01*
X52861Y36886D02*
X53061D01*
X52961Y36786D02*
Y36986D01*
X53811Y36886D02*
X54011D01*
X53911Y36786D02*
Y36986D01*
X38925Y9156D02*
X39125D01*
X39025Y9056D02*
Y9256D01*
X37994Y9156D02*
X38194D01*
X38094Y9056D02*
Y9256D01*
X33550Y11150D02*
X33750D01*
X33650Y11050D02*
Y11250D01*
X28275Y11950D02*
X28475D01*
X28375Y11850D02*
Y12050D01*
X28025Y11175D02*
X28225D01*
X28125Y11075D02*
Y11275D01*
X26625Y12700D02*
X26825D01*
X26725Y12600D02*
Y12800D01*
X25750Y14875D02*
X25950D01*
X25850Y14775D02*
Y14975D01*
X20550Y14225D02*
X20750D01*
X20650Y14125D02*
Y14325D01*
X31500Y33350D02*
X31700D01*
X31600Y33250D02*
Y33450D01*
X32750Y33425D02*
X32950D01*
X32850Y33325D02*
Y33525D01*
X19250Y32575D02*
X19450D01*
X19350Y32475D02*
Y32675D01*
X19300Y33950D02*
X19500D01*
X19400Y33850D02*
Y34050D01*
X21800Y28925D02*
X22000D01*
X21900Y28825D02*
Y29025D01*
X17550Y16725D02*
X17750D01*
X17650Y16625D02*
Y16825D01*
X31175Y26925D02*
X31375D01*
X31275Y26825D02*
Y27025D01*
X43725Y46350D02*
X43925D01*
X43825Y46250D02*
Y46450D01*
X51450Y42850D02*
X51650D01*
X51550Y42750D02*
Y42950D01*
X44100Y36875D02*
X44300D01*
X44200Y36775D02*
Y36975D01*
X28200Y3425D02*
X28400D01*
X28300Y3325D02*
Y3525D01*
X49375Y14950D02*
X49575D01*
X49475Y14850D02*
Y15050D01*
X43275Y15425D02*
X43475D01*
X43375Y15325D02*
Y15525D01*
X48950Y27625D02*
X49150D01*
X49050Y27525D02*
Y27725D01*
X47775Y32625D02*
X47975D01*
X47875Y32525D02*
Y32725D01*
X29650Y41475D02*
X29850D01*
X29750Y41375D02*
Y41575D01*
X8575Y40725D02*
X8775D01*
X8675Y40625D02*
Y40825D01*
X30250Y19800D02*
X30450D01*
X30350Y19700D02*
Y19900D01*
X8000Y19650D02*
X8200D01*
X8100Y19550D02*
Y19750D01*
X8000Y36825D02*
X8200D01*
X8100Y36725D02*
Y36925D01*
X17550Y39450D02*
X17750D01*
X17650Y39350D02*
Y39550D01*
X17550Y38825D02*
X17750D01*
X17650Y38725D02*
Y38925D01*
X30150Y47450D02*
X30350D01*
X30250Y47350D02*
Y47550D01*
X23800Y51050D02*
X24000D01*
X23900Y50950D02*
Y51150D01*
X28200Y36075D02*
X28400D01*
X28300Y35975D02*
Y36175D01*
X29050Y35975D02*
X29250D01*
X29150Y35875D02*
Y36075D01*
X30925Y20350D02*
X31125D01*
X31025Y20250D02*
Y20450D01*
X16400Y4750D02*
X16600D01*
X16500Y4650D02*
Y4850D01*
X44200Y31450D02*
X44400D01*
X44300Y31350D02*
Y31550D01*
X27950Y43200D02*
X28150D01*
X28050Y43100D02*
Y43300D01*
X61861Y43389D02*
X62061D01*
X61961Y43289D02*
Y43489D01*
X36325Y37125D02*
X36525D01*
X36425Y37025D02*
Y37225D01*
X42375Y37600D02*
X42575D01*
X42475Y37500D02*
Y37700D01*
X32500Y38225D02*
X32700D01*
X32600Y38125D02*
Y38325D01*
X28225Y38700D02*
X28425D01*
X28325Y38600D02*
Y38800D01*
X33075Y38475D02*
X33275D01*
X33175Y38375D02*
Y38575D01*
X29925Y37200D02*
X30125D01*
X30025Y37100D02*
Y37300D01*
X29975Y36225D02*
X30175D01*
X30075Y36125D02*
Y36325D01*
X16150Y37100D02*
X16350D01*
X16250Y37000D02*
Y37200D01*
X52300Y41825D02*
X52500D01*
X52400Y41725D02*
Y41925D01*
X50800Y40975D02*
X51000D01*
X50900Y40875D02*
Y41075D01*
X16275Y38400D02*
X16475D01*
X16375Y38300D02*
Y38500D01*
X18225Y24100D02*
X18425D01*
X18325Y24000D02*
Y24200D01*
X18225Y36225D02*
X18425D01*
X18325Y36125D02*
Y36325D01*
X16925Y36150D02*
X17125D01*
X17025Y36050D02*
Y36250D01*
X16125Y35725D02*
X16325D01*
X16225Y35625D02*
Y35825D01*
X15275Y35300D02*
X15475D01*
X15375Y35200D02*
Y35400D01*
X43300Y39125D02*
X43500D01*
X43400Y39025D02*
Y39225D01*
X35825Y38500D02*
X36025D01*
X35925Y38400D02*
Y38600D01*
X32850Y28450D02*
X33050D01*
X32950Y28350D02*
Y28550D01*
X32150Y27725D02*
X32350D01*
X32250Y27625D02*
Y27825D01*
X17175Y37350D02*
X17375D01*
X17275Y37250D02*
Y37450D01*
X41600Y36075D02*
X41800D01*
X41700Y35975D02*
Y36175D01*
X41600Y33700D02*
X41800D01*
X41700Y33600D02*
Y33800D01*
X39400Y32900D02*
X39600D01*
X39500Y32800D02*
Y33000D01*
X37025Y33950D02*
X37225D01*
X37125Y33850D02*
Y34050D01*
X37025Y36475D02*
X37225D01*
X37125Y36375D02*
Y36575D01*
X39715Y36965D02*
X39915D01*
X39815Y36865D02*
Y37065D01*
X37650Y27575D02*
X37850D01*
X37750Y27475D02*
Y27675D01*
X18325Y37125D02*
X18525D01*
X18425Y37025D02*
Y37225D01*
X37150Y28150D02*
X37350D01*
X37250Y28050D02*
Y28250D01*
X38405Y44010D02*
X38605D01*
X38505Y43910D02*
Y44110D01*
X16525Y49275D02*
X16725D01*
X16625Y49175D02*
Y49375D01*
X29300Y47800D02*
X29500D01*
X29400Y47700D02*
Y47900D01*
X33925Y32400D02*
X34125D01*
X34025Y32300D02*
Y32500D01*
X35250Y33275D02*
X35450D01*
X35350Y33175D02*
Y33375D01*
X35250Y35600D02*
X35450D01*
X35350Y35500D02*
Y35700D01*
X34350Y37150D02*
X34550D01*
X34450Y37050D02*
Y37250D01*
X31850Y37150D02*
X32050D01*
X31950Y37050D02*
Y37250D01*
X33400Y33025D02*
X33600D01*
X33500Y32925D02*
Y33125D01*
X36100Y28100D02*
X36300D01*
X36200Y28000D02*
Y28200D01*
X15275Y13925D02*
X15475D01*
X15375Y13825D02*
Y14025D01*
X34975Y28375D02*
X35175D01*
X35075Y28275D02*
Y28475D01*
X34150Y28425D02*
X34350D01*
X34250Y28325D02*
Y28525D01*
X28675Y49275D02*
X28875D01*
X28775Y49175D02*
Y49375D01*
X14425Y35775D02*
X14625D01*
X14525Y35675D02*
Y35875D01*
X42375Y48275D02*
X42575D01*
X42475Y48175D02*
Y48375D01*
X15950Y6125D02*
X16150D01*
X16050Y6025D02*
Y6225D01*
X32075Y24875D02*
X32275D01*
X32175Y24775D02*
Y24975D01*
X32070Y22345D02*
X32270D01*
X32170Y22245D02*
Y22445D01*
X39525Y20575D02*
X39725D01*
X39625Y20475D02*
Y20675D01*
X32875Y22750D02*
X33075D01*
X32975Y22650D02*
Y22850D01*
X32075Y23175D02*
X32275D01*
X32175Y23075D02*
Y23275D01*
X32875Y23600D02*
X33075D01*
X32975Y23500D02*
Y23700D01*
X32075Y24025D02*
X32275D01*
X32175Y23925D02*
Y24125D01*
X31300Y24450D02*
X31500D01*
X31400Y24350D02*
Y24550D01*
X14250Y8825D02*
X14450D01*
X14350Y8725D02*
Y8925D01*
X14250Y29350D02*
X14450D01*
X14350Y29250D02*
Y29450D01*
X30350Y32725D02*
X30550D01*
X30450Y32625D02*
Y32825D01*
X13575Y17725D02*
X13775D01*
X13675Y17625D02*
Y17825D01*
X31875Y28675D02*
X32075D01*
X31975Y28575D02*
Y28775D01*
X12700Y15200D02*
X12900D01*
X12800Y15100D02*
Y15300D01*
X44750Y28250D02*
X44950D01*
X44850Y28150D02*
Y28350D01*
X42650Y28250D02*
X42850D01*
X42750Y28150D02*
Y28350D01*
X42625Y26850D02*
X42825D01*
X42725Y26750D02*
Y26950D01*
X41975Y27350D02*
X42175D01*
X42075Y27250D02*
Y27450D01*
X51000Y10300D02*
X51200D01*
X51100Y10200D02*
Y10400D01*
X54325Y26350D02*
X54525D01*
X54425Y26250D02*
Y26450D01*
X27150Y47625D02*
X27350D01*
X27250Y47525D02*
Y47725D01*
X45425Y27000D02*
X45625D01*
X45525Y26900D02*
Y27100D01*
X45425Y25650D02*
X45625D01*
X45525Y25550D02*
Y25750D01*
X50800Y46475D02*
X51000D01*
X50900Y46375D02*
Y46575D01*
X50800Y25350D02*
X51000D01*
X50900Y25250D02*
Y25450D01*
X53875Y24850D02*
X54075D01*
X53975Y24750D02*
Y24950D01*
X61225Y24675D02*
X61425D01*
X61325Y24575D02*
Y24775D01*
X60435Y24545D02*
X60635D01*
X60535Y24445D02*
Y24645D01*
X54950Y16475D02*
X55150D01*
X55050Y16375D02*
Y16575D01*
X49625Y38775D02*
X49825D01*
X49725Y38675D02*
Y38875D01*
X55050Y14300D02*
X55250D01*
X55150Y14200D02*
Y14400D01*
X56325Y23350D02*
X56525D01*
X56425Y23250D02*
Y23450D01*
X42000Y23350D02*
X42200D01*
X42100Y23250D02*
Y23450D01*
X25425Y47750D02*
X25625D01*
X25525Y47650D02*
Y47850D01*
X21350Y39275D02*
X21550D01*
X21450Y39175D02*
Y39375D01*
X18300Y37775D02*
X18500D01*
X18400Y37675D02*
Y37875D01*
X49750Y39550D02*
X49950D01*
X49850Y39450D02*
Y39650D01*
X42425Y20200D02*
X42625D01*
X42525Y20100D02*
Y20300D01*
X50325Y40025D02*
X50525D01*
X50425Y39925D02*
Y40125D01*
X22925Y28725D02*
X23125D01*
X23025Y28625D02*
Y28825D01*
X26650Y28325D02*
X26850D01*
X26750Y28225D02*
Y28425D01*
X54950Y39575D02*
X55150D01*
X55050Y39475D02*
Y39675D01*
X56255Y39579D02*
X56454D01*
X56354Y39479D02*
Y39680D01*
X51700Y31225D02*
X51900D01*
X51800Y31125D02*
Y31325D01*
X56400Y31150D02*
X56600D01*
X56500Y31050D02*
Y31250D01*
X56950Y30500D02*
X57150D01*
X57050Y30400D02*
Y30600D01*
X53325Y20175D02*
X53525D01*
X53425Y20075D02*
Y20275D01*
X57400Y48500D02*
X57600D01*
X57500Y48400D02*
Y48600D01*
X54375Y20300D02*
X54575D01*
X54475Y20200D02*
Y20400D01*
X12250Y22150D02*
X12450D01*
X12350Y22050D02*
Y22250D01*
X55300Y28175D02*
X55500D01*
X55400Y28075D02*
Y28275D01*
X55300Y20275D02*
X55500D01*
X55400Y20175D02*
Y20375D01*
X27200Y21350D02*
X27400D01*
X27300Y21250D02*
Y21450D01*
X25250Y20225D02*
X25450D01*
X25350Y20125D02*
Y20325D01*
X55775Y35775D02*
X55975D01*
X55875Y35675D02*
Y35875D01*
X53075Y11500D02*
X53275D01*
X53175Y11400D02*
Y11600D01*
X12975Y33950D02*
X13175D01*
X13075Y33850D02*
Y34050D01*
X53900Y11950D02*
X54100D01*
X54000Y11850D02*
Y12050D01*
X32150Y15250D02*
X32350D01*
X32250Y15150D02*
Y15350D01*
X54600Y12125D02*
X54800D01*
X54700Y12025D02*
Y12225D01*
X57297Y29431D02*
X57497D01*
X57397Y29331D02*
Y29531D01*
X55575Y11800D02*
X55775D01*
X55675Y11700D02*
Y11900D01*
X57400Y26875D02*
X57600D01*
X57500Y26775D02*
Y26975D01*
X56100Y12350D02*
X56300D01*
X56200Y12250D02*
Y12450D01*
X41315Y15538D02*
X41515D01*
X41415Y15438D02*
Y15638D01*
X39785Y14850D02*
X39985D01*
X39885Y14750D02*
Y14950D01*
X34750Y5700D02*
X34950D01*
X34850Y5600D02*
Y5800D01*
X28450Y7000D02*
X28650D01*
X28550Y6900D02*
Y7100D01*
X29925Y6850D02*
X30125D01*
X30025Y6750D02*
Y6950D01*
X27525Y8775D02*
X27725D01*
X27625Y8675D02*
Y8875D01*
X31575Y8325D02*
X31775D01*
X31675Y8225D02*
Y8425D01*
X16900Y14850D02*
X17100D01*
X17000Y14750D02*
Y14950D01*
X22400Y14350D02*
X22600D01*
X22500Y14250D02*
Y14450D01*
X34425Y696D02*
X34625D01*
X34525Y596D02*
Y796D01*
X35925Y696D02*
X36125D01*
X36025Y596D02*
Y796D01*
X27975Y698D02*
X28175D01*
X28075Y598D02*
Y798D01*
X29625Y696D02*
X29825D01*
X29725Y596D02*
Y796D01*
X31125Y696D02*
X31325D01*
X31225Y596D02*
Y796D01*
X23200Y698D02*
X23400D01*
X23300Y598D02*
Y798D01*
X24850Y696D02*
X25050D01*
X24950Y596D02*
Y796D01*
X18525Y698D02*
X18725D01*
X18625Y598D02*
Y798D01*
X20175Y696D02*
X20375D01*
X20275Y596D02*
Y796D01*
X21675Y696D02*
X21875D01*
X21775Y596D02*
Y796D01*
X16850Y698D02*
X17050D01*
X16950Y598D02*
Y798D01*
X15350Y698D02*
X15550D01*
X15450Y598D02*
Y798D01*
X13700Y700D02*
X13900D01*
X13800Y600D02*
Y800D01*
X2125Y2802D02*
X2325D01*
X2225Y2702D02*
Y2902D01*
X6800Y2802D02*
X7000D01*
X6900Y2702D02*
Y2902D01*
X5150Y2804D02*
X5350D01*
X5250Y2704D02*
Y2904D01*
X3650Y2804D02*
X3850D01*
X3750Y2704D02*
Y2904D01*
X21000Y44700D02*
X21200D01*
X21100Y44600D02*
Y44800D01*
X20100Y61950D02*
X20300D01*
X20200Y61850D02*
Y62050D01*
X19475Y58550D02*
X19675D01*
X19575Y58450D02*
Y58650D01*
X63050Y72425D02*
X63250D01*
X63150Y72325D02*
Y72525D01*
X67325Y72300D02*
X67525D01*
X67425Y72200D02*
Y72400D01*
X66975Y2698D02*
X67175D01*
X67075Y2598D02*
Y2798D01*
X62175Y2698D02*
X62375D01*
X62275Y2598D02*
Y2798D01*
X63825Y2696D02*
X64025D01*
X63925Y2596D02*
Y2796D01*
X65325Y2696D02*
X65525D01*
X65425Y2596D02*
Y2796D01*
X57400Y2698D02*
X57600D01*
X57500Y2598D02*
Y2798D01*
X59050Y2696D02*
X59250D01*
X59150Y2596D02*
Y2796D01*
X60550Y2696D02*
X60750D01*
X60650Y2596D02*
Y2796D01*
X52725Y2698D02*
X52925D01*
X52825Y2598D02*
Y2798D01*
X54375Y2696D02*
X54575D01*
X54475Y2596D02*
Y2796D01*
X55875Y2696D02*
X56075D01*
X55975Y2596D02*
Y2796D01*
X51050Y2698D02*
X51250D01*
X51150Y2598D02*
Y2798D01*
X49550Y2698D02*
X49750D01*
X49650Y2598D02*
Y2798D01*
X47900Y2700D02*
X48100D01*
X48000Y2600D02*
Y2800D01*
X42375Y698D02*
X42575D01*
X42475Y598D02*
Y798D01*
X37550Y698D02*
X37750D01*
X37650Y598D02*
Y798D01*
X39200Y696D02*
X39400D01*
X39300Y596D02*
Y796D01*
X40700Y696D02*
X40900D01*
X40800Y596D02*
Y796D01*
X32775Y698D02*
X32975D01*
X32875Y598D02*
Y798D01*
X27400Y81798D02*
X27600D01*
X27500Y81698D02*
Y81898D01*
X29050Y81796D02*
X29250D01*
X29150Y81696D02*
Y81896D01*
X30550Y81796D02*
X30750D01*
X30650Y81696D02*
Y81896D01*
X22625Y81798D02*
X22825D01*
X22725Y81698D02*
Y81898D01*
X24275Y81796D02*
X24475D01*
X24375Y81696D02*
Y81896D01*
X25775Y81796D02*
X25975D01*
X25875Y81696D02*
Y81896D01*
X17825Y81798D02*
X18025D01*
X17925Y81698D02*
Y81898D01*
X19475Y81796D02*
X19675D01*
X19575Y81696D02*
Y81896D01*
X20975Y81796D02*
X21175D01*
X21075Y81696D02*
Y81896D01*
X13050Y81798D02*
X13250D01*
X13150Y81698D02*
Y81898D01*
X14700Y81796D02*
X14900D01*
X14800Y81696D02*
Y81896D01*
X16200Y81796D02*
X16400D01*
X16300Y81696D02*
Y81896D01*
X8375Y81798D02*
X8575D01*
X8475Y81698D02*
Y81898D01*
X10025Y81796D02*
X10225D01*
X10125Y81696D02*
Y81896D01*
X11525Y81796D02*
X11725D01*
X11625Y81696D02*
Y81896D01*
X6700Y81798D02*
X6900D01*
X6800Y81698D02*
Y81898D01*
X5200Y81798D02*
X5400D01*
X5300Y81698D02*
Y81898D01*
X3550Y81800D02*
X3750D01*
X3650Y81700D02*
Y81900D01*
X10300Y73550D02*
X10500D01*
X10400Y73450D02*
Y73650D01*
X5200Y73200D02*
X5400D01*
X5300Y73100D02*
Y73300D01*
X19300Y75800D02*
X19500D01*
X19400Y75700D02*
Y75900D01*
X7525Y75175D02*
X7725D01*
X7625Y75075D02*
Y75275D01*
X17950Y69900D02*
X18150D01*
X18050Y69800D02*
Y70000D01*
X7525Y78600D02*
X7725D01*
X7625Y78500D02*
Y78700D01*
X45475Y46550D02*
X45675D01*
X45575Y46450D02*
Y46650D01*
X41325Y46700D02*
X41525D01*
X41425Y46600D02*
Y46800D01*
X37980Y47110D02*
X38180D01*
X38080Y47010D02*
Y47210D01*
X39875Y43800D02*
X40075D01*
X39975Y43700D02*
Y43900D01*
X35625Y47450D02*
X35825D01*
X35725Y47350D02*
Y47550D01*
X51725Y47200D02*
X51925D01*
X51825Y47100D02*
Y47300D01*
X45725Y43750D02*
X45925D01*
X45825Y43650D02*
Y43850D01*
X44550Y72525D02*
X44750D01*
X44650Y72425D02*
Y72625D01*
X14041Y45084D02*
X14241D01*
X14141Y44984D02*
Y45184D01*
X13795Y48550D02*
X13995D01*
X13895Y48450D02*
Y48650D01*
X34200Y58200D02*
X34400D01*
X34300Y58100D02*
Y58300D01*
X23925Y58475D02*
X24125D01*
X24025Y58375D02*
Y58575D01*
X64350Y77850D02*
X64550D01*
X64450Y77750D02*
Y77950D01*
X59175Y77225D02*
X59375D01*
X59275Y77125D02*
Y77325D01*
X63775Y74950D02*
X63975D01*
X63875Y74850D02*
Y75050D01*
X55325Y56950D02*
X55525D01*
X55425Y56850D02*
Y57050D01*
X40700Y59950D02*
X40900D01*
X40800Y59850D02*
Y60050D01*
X41675Y63100D02*
X41875D01*
X41775Y63000D02*
Y63200D01*
X51725Y50625D02*
X51925D01*
X51825Y50525D02*
Y50725D01*
X38625Y59750D02*
X38825D01*
X38725Y59650D02*
Y59850D01*
X43475Y65525D02*
X43675D01*
X43575Y65425D02*
Y65625D01*
X41175Y65500D02*
X41375D01*
X41275Y65400D02*
Y65600D01*
X38675Y62875D02*
X38875D01*
X38775Y62775D02*
Y62975D01*
X8475Y2802D02*
X8675D01*
X8575Y2702D02*
Y2902D01*
X9975Y2802D02*
X10175D01*
X10075Y2702D02*
Y2902D01*
X11625Y2800D02*
X11825D01*
X11725Y2700D02*
Y2900D01*
X69200Y80400D02*
X69400D01*
X69300Y80300D02*
Y80500D01*
X68650Y3100D02*
X68850D01*
X68750Y3000D02*
Y3200D01*
X46085Y890D02*
X46285D01*
X46185Y790D02*
Y990D01*
X46990Y1795D02*
X47190D01*
X47090Y1695D02*
Y1895D01*
X12750Y1640D02*
X12950D01*
X12850Y1540D02*
Y1740D01*
X1100Y3200D02*
X1300D01*
X1200Y3100D02*
Y3300D01*
X68600Y81300D02*
X68800D01*
X68700Y81200D02*
Y81400D01*
X63650Y65575D02*
X63850D01*
X63750Y65475D02*
Y65675D01*
X2750Y74050D02*
X2950D01*
X2850Y73950D02*
Y74150D01*
X3025Y58200D02*
X3225D01*
X3125Y58100D02*
Y58300D01*
X11075Y58025D02*
X11275D01*
X11175Y57925D02*
Y58125D01*
X3925Y55575D02*
X4125D01*
X4025Y55475D02*
Y55675D01*
X64975Y74075D02*
X65175D01*
X65075Y73975D02*
Y74175D01*
X64625Y57700D02*
X64825D01*
X64725Y57600D02*
Y57800D01*
X2152Y81790D02*
X2352D01*
X2252Y81690D02*
Y81890D01*
X1175Y81450D02*
X1375D01*
X1275Y81350D02*
Y81550D01*
X700Y80700D02*
X900D01*
X800Y80600D02*
Y80800D01*
X677Y78925D02*
X877D01*
X777Y78825D02*
Y79025D01*
X675Y77275D02*
X875D01*
X775Y77175D02*
Y77375D01*
X675Y75775D02*
X875D01*
X775Y75675D02*
Y75875D01*
X673Y70950D02*
X873D01*
X773Y70850D02*
Y71050D01*
X673Y72450D02*
X873D01*
X773Y72350D02*
Y72550D01*
X675Y74100D02*
X875D01*
X775Y74000D02*
Y74200D01*
X673Y66275D02*
X873D01*
X773Y66175D02*
Y66375D01*
X673Y67775D02*
X873D01*
X773Y67675D02*
Y67875D01*
X675Y69425D02*
X875D01*
X775Y69325D02*
Y69525D01*
X673Y61500D02*
X873D01*
X773Y61400D02*
Y61600D01*
X63460Y79450D02*
X63660D01*
X63560Y79350D02*
Y79550D01*
X63460Y80625D02*
X63660D01*
X63560Y80525D02*
Y80725D01*
X17050Y51400D02*
X17250D01*
X17150Y51300D02*
Y51500D01*
X17496Y51775D02*
X17696D01*
X17596Y51675D02*
Y51875D01*
X39925Y66700D02*
X40125D01*
X40025Y66600D02*
Y66800D01*
X59815Y80625D02*
X60015D01*
X59915Y80525D02*
Y80725D01*
X59815Y79450D02*
X60015D01*
X59915Y79350D02*
Y79550D01*
X50770Y63075D02*
X50970D01*
X50870Y62975D02*
Y63175D01*
X49715Y63675D02*
X49915D01*
X49815Y63575D02*
Y63775D01*
X26575Y47100D02*
X26775D01*
X26675Y47000D02*
Y47200D01*
X21475Y47075D02*
X21675D01*
X21575Y46975D02*
Y47175D01*
X24000Y46950D02*
X24200D01*
X24100Y46850D02*
Y47050D01*
X25400Y46050D02*
X25600D01*
X25500Y45950D02*
Y46150D01*
X22725Y46075D02*
X22925D01*
X22825Y45975D02*
Y46175D01*
X22750Y44850D02*
X22950D01*
X22850Y44750D02*
Y44950D01*
X18200Y47225D02*
X18400D01*
X18300Y47125D02*
Y47325D01*
X16975Y47350D02*
X17175D01*
X17075Y47250D02*
Y47450D01*
X29400Y80475D02*
X29600D01*
X29500Y80375D02*
Y80575D01*
X18100Y50525D02*
X18300D01*
X18200Y50425D02*
Y50625D01*
X20185Y48142D02*
X20385D01*
X20285Y48042D02*
Y48242D01*
X20525Y63450D02*
X20725D01*
X20625Y63350D02*
Y63550D01*
X9000Y70900D02*
X9200D01*
X9100Y70800D02*
Y71000D01*
X8475Y73375D02*
X8675D01*
X8575Y73275D02*
Y73475D01*
X8900Y47950D02*
X9100D01*
X9000Y47850D02*
Y48050D01*
X7150Y58050D02*
X7350D01*
X7250Y57950D02*
Y58150D01*
X40750Y79600D02*
X40950D01*
X40850Y79500D02*
Y79700D01*
X8550Y52875D02*
X8750D01*
X8650Y52775D02*
Y52975D01*
X3225Y52775D02*
X3425D01*
X3325Y52675D02*
Y52875D01*
X8575Y55725D02*
X8775D01*
X8675Y55625D02*
Y55825D01*
X6200Y54075D02*
X6400D01*
X6300Y53975D02*
Y54175D01*
X13300Y52850D02*
X13500D01*
X13400Y52750D02*
Y52950D01*
X7775Y51150D02*
X7975D01*
X7875Y51050D02*
Y51250D01*
X11925Y75800D02*
X12125D01*
X12025Y75700D02*
Y75900D01*
X15325Y77175D02*
X15525D01*
X15425Y77075D02*
Y77275D01*
X20600Y80375D02*
X20800D01*
X20700Y80275D02*
Y80475D01*
X17200Y78050D02*
X17400D01*
X17300Y77950D02*
Y78150D01*
X9600Y77825D02*
X9800D01*
X9700Y77725D02*
Y77925D01*
X15300Y78025D02*
X15500D01*
X15400Y77925D02*
Y78125D01*
X21400Y79150D02*
X21600D01*
X21500Y79050D02*
Y79250D01*
X63175Y56475D02*
X63375D01*
X63275Y56375D02*
Y56575D01*
X61050Y51800D02*
X61250D01*
X61150Y51700D02*
Y51900D01*
X62450Y59250D02*
X62650D01*
X62550Y59150D02*
Y59350D01*
X55375Y50825D02*
X55575D01*
X55475Y50725D02*
Y50925D01*
X63350Y53225D02*
X63550D01*
X63450Y53125D02*
Y53325D01*
X61725Y54950D02*
X61925D01*
X61825Y54850D02*
Y55050D01*
X31225Y60200D02*
X31425D01*
X31325Y60100D02*
Y60300D01*
X29650Y63075D02*
X29850D01*
X29750Y62975D02*
Y63175D01*
X30825Y60800D02*
X31025D01*
X30925Y60700D02*
Y60900D01*
X31425Y61875D02*
X31625D01*
X31525Y61775D02*
Y61975D01*
X34075Y60800D02*
X34275D01*
X34175Y60700D02*
Y60900D01*
X35325Y60800D02*
X35525D01*
X35425Y60700D02*
Y60900D01*
X32525Y63300D02*
X32725D01*
X32625Y63200D02*
Y63400D01*
X34675Y61875D02*
X34875D01*
X34775Y61775D02*
Y61975D01*
X59810Y80040D02*
X60010D01*
X59910Y79940D02*
Y80140D01*
X30075Y57500D02*
X30275D01*
X30175Y57400D02*
Y57600D01*
X28400Y57500D02*
X28600D01*
X28500Y57400D02*
Y57600D01*
X26975Y60800D02*
X27175D01*
X27075Y60700D02*
Y60900D01*
X27575Y61875D02*
X27775D01*
X27675Y61775D02*
Y61975D01*
X28180Y61830D02*
X28380D01*
X28280Y61730D02*
Y61930D01*
X22225Y43600D02*
X22425D01*
X22325Y43500D02*
Y43700D01*
X21000Y43615D02*
X21200D01*
X21100Y43515D02*
Y43715D01*
X50775Y62025D02*
X50975D01*
X50875Y61925D02*
Y62125D01*
X50775Y60825D02*
X50975D01*
X50875Y60725D02*
Y60925D01*
X50770Y64275D02*
X50970D01*
X50870Y64175D02*
Y64375D01*
X51830Y61425D02*
X52030D01*
X51930Y61325D02*
Y61525D01*
X49720Y61425D02*
X49920D01*
X49820Y61325D02*
Y61525D01*
X51825Y63675D02*
X52025D01*
X51925Y63575D02*
Y63775D01*
X63465Y80040D02*
X63665D01*
X63565Y79940D02*
Y80140D01*
X48414Y47310D02*
X48614D01*
X48514Y47210D02*
Y47410D01*
X49800Y46600D02*
X50000D01*
X49900Y46500D02*
Y46700D01*
X35935Y46095D02*
X36135D01*
X36035Y45995D02*
Y46195D01*
X29930Y44685D02*
X30130D01*
X30030Y44585D02*
Y44785D01*
X31780Y44435D02*
X31980D01*
X31880Y44335D02*
Y44535D01*
X33030Y44435D02*
X33230D01*
X33130Y44335D02*
Y44535D01*
X33030Y46485D02*
X33230D01*
X33130Y46385D02*
Y46585D01*
X31780Y46485D02*
X31980D01*
X31880Y46385D02*
Y46585D01*
X32400Y45450D02*
X32600D01*
X32500Y45350D02*
Y45550D01*
X32130Y47710D02*
X32330D01*
X32230Y47610D02*
Y47810D01*
X37050Y46300D02*
X37250D01*
X37150Y46200D02*
Y46400D01*
X19175Y47325D02*
X19375D01*
X19275Y47225D02*
Y47425D01*
X17350Y46500D02*
X17550D01*
X17450Y46400D02*
Y46600D01*
X23450Y43600D02*
X23650D01*
X23550Y43500D02*
Y43700D01*
X673Y5625D02*
X873D01*
X773Y5525D02*
Y5725D01*
X675Y7275D02*
X875D01*
X775Y7175D02*
Y7375D01*
X69198Y7250D02*
X69398D01*
X69298Y7150D02*
Y7350D01*
X69196Y5600D02*
X69396D01*
X69296Y5500D02*
Y5700D01*
X69196Y4100D02*
X69396D01*
X69296Y4000D02*
Y4200D01*
X69198Y12075D02*
X69398D01*
X69298Y11975D02*
Y12175D01*
X69196Y10425D02*
X69396D01*
X69296Y10325D02*
Y10525D01*
X69196Y8925D02*
X69396D01*
X69296Y8825D02*
Y9025D01*
X69198Y16850D02*
X69398D01*
X69298Y16750D02*
Y16950D01*
X69196Y15200D02*
X69396D01*
X69296Y15100D02*
Y15300D01*
X69196Y13700D02*
X69396D01*
X69296Y13600D02*
Y13800D01*
X69198Y21625D02*
X69398D01*
X69298Y21525D02*
Y21725D01*
X69196Y19975D02*
X69396D01*
X69296Y19875D02*
Y20075D01*
X69196Y18475D02*
X69396D01*
X69296Y18375D02*
Y18575D01*
X69198Y26475D02*
X69398D01*
X69298Y26375D02*
Y26575D01*
X69196Y24825D02*
X69396D01*
X69296Y24725D02*
Y24925D01*
X69196Y23325D02*
X69396D01*
X69296Y23225D02*
Y23425D01*
X69198Y31300D02*
X69398D01*
X69298Y31200D02*
Y31400D01*
X673Y34275D02*
X873D01*
X773Y34175D02*
Y34375D01*
X675Y35925D02*
X875D01*
X775Y35825D02*
Y36025D01*
X673Y28175D02*
X873D01*
X773Y28075D02*
Y28275D01*
X673Y29675D02*
X873D01*
X773Y29575D02*
Y29775D01*
X675Y31325D02*
X875D01*
X775Y31225D02*
Y31425D01*
X673Y23350D02*
X873D01*
X773Y23250D02*
Y23450D01*
X673Y24850D02*
X873D01*
X773Y24750D02*
Y24950D01*
X675Y26500D02*
X875D01*
X775Y26400D02*
Y26600D01*
X673Y18500D02*
X873D01*
X773Y18400D02*
Y18600D01*
X673Y20000D02*
X873D01*
X773Y19900D02*
Y20100D01*
X675Y21650D02*
X875D01*
X775Y21550D02*
Y21750D01*
X673Y13725D02*
X873D01*
X773Y13625D02*
Y13825D01*
X673Y15225D02*
X873D01*
X773Y15125D02*
Y15325D01*
X675Y16875D02*
X875D01*
X775Y16775D02*
Y16975D01*
X673Y8950D02*
X873D01*
X773Y8850D02*
Y9050D01*
X673Y10450D02*
X873D01*
X773Y10350D02*
Y10550D01*
X675Y12100D02*
X875D01*
X775Y12000D02*
Y12200D01*
X673Y4125D02*
X873D01*
X773Y4025D02*
Y4225D01*
X673Y63000D02*
X873D01*
X773Y62900D02*
Y63100D01*
X675Y64650D02*
X875D01*
X775Y64550D02*
Y64750D01*
X673Y56700D02*
X873D01*
X773Y56600D02*
Y56800D01*
X673Y58200D02*
X873D01*
X773Y58100D02*
Y58300D01*
X675Y59850D02*
X875D01*
X775Y59750D02*
Y59950D01*
X673Y51925D02*
X873D01*
X773Y51825D02*
Y52025D01*
X673Y53425D02*
X873D01*
X773Y53325D02*
Y53525D01*
X675Y55075D02*
X875D01*
X775Y54975D02*
Y55175D01*
X673Y47100D02*
X873D01*
X773Y47000D02*
Y47200D01*
X673Y48600D02*
X873D01*
X773Y48500D02*
Y48700D01*
X675Y50250D02*
X875D01*
X775Y50150D02*
Y50350D01*
X673Y42325D02*
X873D01*
X773Y42225D02*
Y42425D01*
X673Y43825D02*
X873D01*
X773Y43725D02*
Y43925D01*
X675Y45475D02*
X875D01*
X775Y45375D02*
Y45575D01*
X673Y37550D02*
X873D01*
X773Y37450D02*
Y37650D01*
X673Y39050D02*
X873D01*
X773Y38950D02*
Y39150D01*
X675Y40700D02*
X875D01*
X775Y40600D02*
Y40800D01*
X673Y32775D02*
X873D01*
X773Y32675D02*
Y32875D01*
X37200Y69225D02*
X37400D01*
X37300Y69125D02*
Y69325D01*
X36125Y69925D02*
X36325D01*
X36225Y69825D02*
Y70025D01*
X36125Y68625D02*
X36325D01*
X36225Y68525D02*
Y68725D01*
X36125Y67350D02*
X36325D01*
X36225Y67250D02*
Y67450D01*
X38250Y67325D02*
X38450D01*
X38350Y67225D02*
Y67425D01*
X39300Y67325D02*
X39500D01*
X39400Y67225D02*
Y67425D01*
X26325Y61875D02*
X26525D01*
X26425Y61775D02*
Y61975D01*
X25725Y60800D02*
X25925D01*
X25825Y60700D02*
Y60900D01*
X37200Y70525D02*
X37400D01*
X37300Y70425D02*
Y70625D01*
X32550Y76000D02*
X32750D01*
X32650Y75900D02*
Y76100D01*
X31950Y74925D02*
X32150D01*
X32050Y74825D02*
Y75025D01*
X28300Y66625D02*
X28500D01*
X28400Y66525D02*
Y66725D01*
X28950Y66625D02*
X29150D01*
X29050Y66525D02*
Y66725D01*
X29600Y66625D02*
X29800D01*
X29700Y66525D02*
Y66725D01*
X30250Y66625D02*
X30450D01*
X30350Y66525D02*
Y66725D01*
X31375Y67750D02*
X31575D01*
X31475Y67650D02*
Y67850D01*
X31375Y67100D02*
X31575D01*
X31475Y67000D02*
Y67200D01*
X30900Y66625D02*
X31100D01*
X31000Y66525D02*
Y66725D01*
X27825Y67100D02*
X28025D01*
X27925Y67000D02*
Y67200D01*
X27825Y67750D02*
X28025D01*
X27925Y67650D02*
Y67850D01*
X27825Y68400D02*
X28025D01*
X27925Y68300D02*
Y68500D01*
X31375Y68400D02*
X31575D01*
X31475Y68300D02*
Y68500D01*
X31375Y69050D02*
X31575D01*
X31475Y68950D02*
Y69150D01*
X14575Y49625D02*
X14775D01*
X14675Y49525D02*
Y49725D01*
X28300Y70525D02*
X28500D01*
X28400Y70425D02*
Y70625D01*
X29600Y70525D02*
X29800D01*
X29700Y70425D02*
Y70625D01*
X35925Y61875D02*
X36125D01*
X36025Y61775D02*
Y61975D01*
X22000Y64925D02*
X22200D01*
X22100Y64825D02*
Y65025D01*
X23075Y64325D02*
X23275D01*
X23175Y64225D02*
Y64425D01*
X23075Y66625D02*
X23275D01*
X23175Y66525D02*
Y66725D01*
X23075Y69325D02*
X23275D01*
X23175Y69225D02*
Y69425D01*
X37200Y63400D02*
X37400D01*
X37300Y63300D02*
Y63500D01*
X37200Y64450D02*
X37400D01*
X37300Y64350D02*
Y64550D01*
X63975Y81796D02*
X64175D01*
X64075Y81696D02*
Y81896D01*
X55975Y81798D02*
X56175D01*
X56075Y81698D02*
Y81898D01*
X57625Y81796D02*
X57825D01*
X57725Y81696D02*
Y81896D01*
X59125Y81796D02*
X59325D01*
X59225Y81696D02*
Y81896D01*
X51150Y81798D02*
X51350D01*
X51250Y81698D02*
Y81898D01*
X52800Y81796D02*
X53000D01*
X52900Y81696D02*
Y81896D01*
X54300Y81796D02*
X54500D01*
X54400Y81696D02*
Y81896D01*
X46550Y81798D02*
X46750D01*
X46650Y81698D02*
Y81898D01*
X48200Y81796D02*
X48400D01*
X48300Y81696D02*
Y81896D01*
X49700Y81796D02*
X49900D01*
X49800Y81696D02*
Y81896D01*
X41775Y81798D02*
X41975D01*
X41875Y81698D02*
Y81898D01*
X43425Y81796D02*
X43625D01*
X43525Y81696D02*
Y81896D01*
X44925Y81796D02*
X45125D01*
X45025Y81696D02*
Y81896D01*
X37000Y81798D02*
X37200D01*
X37100Y81698D02*
Y81898D01*
X40150Y81796D02*
X40350D01*
X40250Y81696D02*
Y81896D01*
X32225Y81798D02*
X32425D01*
X32325Y81698D02*
Y81898D01*
X33875Y81796D02*
X34075D01*
X33975Y81696D02*
Y81896D01*
X35375Y81796D02*
X35575D01*
X35475Y81696D02*
Y81896D01*
X69196Y58175D02*
X69396D01*
X69296Y58075D02*
Y58275D01*
X69196Y56675D02*
X69396D01*
X69296Y56575D02*
Y56775D01*
X69198Y64625D02*
X69398D01*
X69298Y64525D02*
Y64725D01*
X69196Y62975D02*
X69396D01*
X69296Y62875D02*
Y63075D01*
X69196Y61475D02*
X69396D01*
X69296Y61375D02*
Y61575D01*
X69198Y69400D02*
X69398D01*
X69298Y69300D02*
Y69500D01*
X69196Y67750D02*
X69396D01*
X69296Y67650D02*
Y67850D01*
X69196Y66250D02*
X69396D01*
X69296Y66150D02*
Y66350D01*
X69198Y74075D02*
X69398D01*
X69298Y73975D02*
Y74175D01*
X69196Y72425D02*
X69396D01*
X69296Y72325D02*
Y72525D01*
X69196Y70925D02*
X69396D01*
X69296Y70825D02*
Y71025D01*
X69198Y75750D02*
X69398D01*
X69298Y75650D02*
Y75850D01*
X69198Y77250D02*
X69398D01*
X69298Y77150D02*
Y77350D01*
X69200Y78900D02*
X69400D01*
X69300Y78800D02*
Y79000D01*
X65600Y81798D02*
X65800D01*
X65700Y81698D02*
Y81898D01*
X67250Y81796D02*
X67450D01*
X67350Y81696D02*
Y81896D01*
X60825Y81798D02*
X61025D01*
X60925Y81698D02*
Y81898D01*
X62475Y81796D02*
X62675D01*
X62575Y81696D02*
Y81896D01*
X69196Y29650D02*
X69396D01*
X69296Y29550D02*
Y29750D01*
X69196Y28150D02*
X69396D01*
X69296Y28050D02*
Y28250D01*
X69198Y35900D02*
X69398D01*
X69298Y35800D02*
Y36000D01*
X69196Y34250D02*
X69396D01*
X69296Y34150D02*
Y34350D01*
X69196Y32750D02*
X69396D01*
X69296Y32650D02*
Y32850D01*
X69198Y40675D02*
X69398D01*
X69298Y40575D02*
Y40775D01*
X69196Y39025D02*
X69396D01*
X69296Y38925D02*
Y39125D01*
X69196Y37525D02*
X69396D01*
X69296Y37425D02*
Y37625D01*
X69198Y45450D02*
X69398D01*
X69298Y45350D02*
Y45550D01*
X69196Y43800D02*
X69396D01*
X69296Y43700D02*
Y43900D01*
X69196Y42300D02*
X69396D01*
X69296Y42200D02*
Y42400D01*
X69198Y50225D02*
X69398D01*
X69298Y50125D02*
Y50325D01*
X69196Y48575D02*
X69396D01*
X69296Y48475D02*
Y48675D01*
X69196Y47075D02*
X69396D01*
X69296Y46975D02*
Y47175D01*
X69198Y55050D02*
X69398D01*
X69298Y54950D02*
Y55150D01*
X69196Y53400D02*
X69396D01*
X69296Y53300D02*
Y53500D01*
X69196Y51900D02*
X69396D01*
X69296Y51800D02*
Y52000D01*
X69198Y59825D02*
X69398D01*
X69298Y59725D02*
Y59925D01*
X12850Y49550D02*
X13050D01*
X12950Y49450D02*
Y49650D01*
X12150Y45800D02*
X12350D01*
X12250Y45700D02*
Y45900D01*
X14250Y47025D02*
X14450D01*
X14350Y46925D02*
Y47125D01*
X26225Y48400D02*
X26425D01*
X26325Y48300D02*
Y48500D01*
X66700Y53200D02*
X66900D01*
X66800Y53100D02*
Y53300D01*
X22475Y48375D02*
X22675D01*
X22575Y48275D02*
Y48475D01*
X66675Y60100D02*
X66875D01*
X66775Y60000D02*
Y60200D01*
X11150Y44550D02*
X11350D01*
X11250Y44450D02*
Y44650D01*
X66550Y66750D02*
X66750D01*
X66650Y66650D02*
Y66850D01*
X62525Y63925D02*
X62725D01*
X62625Y63825D02*
Y64025D01*
X8850Y44825D02*
X9050D01*
X8950Y44725D02*
Y44925D01*
M02*
