M48
;Layer_Color=9474304
;FILE_FORMAT=4:3
METRIC,LZ
;TYPE=PLATED
T1F00S00C0.200
T3F00S00C1.000
%
T01
X00012Y00032
X0000773Y0004125
Y0005625
X0000775Y0007275
X0000773Y000895
X0002225Y0002802
X000375Y0002804
X000525
X00069Y0002802
X0008575
X0010075
X0011725Y00028
X001285Y000164
X00138Y00007
X001545Y0000698
X001695
X0018625
X0020275Y0000696
X0021775
X00233Y0000698
X002495Y0000696
X0028075Y0000698
X0029725Y0000696
X0031225
X0032875Y0000698
X0034525Y0000696
X0036025
X003765Y0000698
X00393Y0000696
X00408
X0042475Y0000698
X0046185Y000089
X004385Y000865
X004325Y00084
X0039025Y0009156
X0038094Y0009156
X003485Y00057
X0031675Y0008325
X0030025Y000685
X002855Y0007
X0027825Y000585
Y0005075
X00283Y0003425
X0030675Y00031
X0027625Y0008775
X002375Y0008275
X0023Y000825
X0022
X0021Y000825
X001605Y0006125
X00165Y000475
X001435Y0008825
X004709Y0001795
X0048Y00027
X004965Y0002698
X005115
X0052825
X0054475Y0002696
X0055975
X00575Y0002698
X005915Y0002696
X006065
X0062275Y0002698
X0063925Y0002696
X0065425
X0067075Y0002698
X006875Y00031
X0069296Y00041
Y00056
X0069298Y000725
X0069296Y0008925
Y0010425
X0069298Y0012075
X0069296Y00137
Y00152
X0069298Y001685
X0069296Y0018475
Y0019975
X0069298Y0021625
X0069296Y0023325
Y0024825
X0069298Y0026475
X0069296Y002815
Y002965
X0069298Y00313
X0069296Y003275
Y003425
X0069298Y00359
X0069296Y0037525
Y0039025
X0069298Y0040675
X0069296Y00423
Y00438
X0069298Y004545
X0069296Y0047075
Y0048575
X00575Y00485
X0051825Y00472
X00509Y0046475
X00499Y00466
X0048514Y004731
X005155Y004285
X00524Y0041825
X00509Y0040975
X0050425Y0040025
X004985Y003955
X0049725Y0038775
X0052961Y0036886
X0053911
X0055875Y0035775
X0056354Y0039579
X005505Y0039575
X00565Y003115
X005705Y00305
X0057397Y0029431
X00575Y0026875
X00554Y0028175
X0054425Y002635
X0053975Y002485
X00509Y002535
X004905Y0027625
X0047875Y0032625
X00518Y0031225
X0056425Y002335
X0056575Y002155
X00554Y0020275
X0054475Y00203
X0053425Y0020175
X0056325Y0019025
X005505Y0016475
X005515Y00143
X00547Y0012125
X0054Y001195
X0053175Y00115
X0052375Y0011425
X00511Y00103
X00477Y000977
X0049475Y001495
X0056825Y0013075
X0057475
X00562Y001235
X0055675Y00118
X0060535Y0024545
X0061325Y0024675
X0061961Y0043389
X0045825Y004375
X0045575Y004655
X0043825Y004635
X0041425Y00467
X0042475Y0048275
X003808Y004711
X003715Y00463
X0036035Y0046095
X0035725Y004745
X00345Y0047225
X0034525Y004785
X00359Y0048775
X003223Y004771
X003188Y0046485
X003313
X00325Y004545
X003188Y0044435
X003313
X003003Y0044685
X003025Y004745
X00294Y00478
X002725Y0047625
X0026675Y00471
X0026325Y00484
X0025525Y004775
X00255Y004605
X00241Y004695
X0022825Y0046075
X002285Y004485
X0022325Y00436
X002355
X00211Y0043615
Y00447
X0021575Y0047075
X0022575Y0048375
X0020285Y0048142
X0019275Y0047325
X00183Y0047225
X0017075Y004735
X001745Y00465
X001435Y0047025
X0013895Y004855
X0014141Y0045084
X001225Y00458
X001125Y004455
X000895Y0044825
X0009Y004795
X0008675Y0040725
X00081Y0036825
X0014525Y0035775
X0015375Y00353
X0016225Y0035725
X0017025Y003615
X0018325Y0036225
X0018425Y0037125
X00184Y0037775
X0017275Y003735
X001625Y00371
X0016375Y00384
X001765Y0038825
Y003945
X002145Y0039275
X0021425Y00385
X002235Y0038175
X0021925Y003765
X002375Y0038175
X002435
X002415Y0034625
X00249
X0024925Y0031725
X0020925Y0032575
Y003395
X00194
X001935Y0032575
X0020575Y0028925
X00219
X0023025Y0028725
X0023575Y00282
X002285Y002585
X0024225Y0025
X00242Y002305
X002735
X00273Y002135
X0027264Y0020436
X002725Y00192
Y00186
X002655Y00188
X00277Y0018075
X0027775Y00173
X002585Y0014875
X0026725Y00127
X0025325Y001195
X002525Y00101
X002375Y00109
X002275Y0010175
X002125Y0010875
X0021475Y0011425
X002065Y001285
Y0014225
X00225Y001435
X0017Y001485
X001765Y0016725
X0015825Y0016475
X001623Y00181
X0017875Y001905
X001765Y0021525
X0019425Y002105
X002025Y0020575
X0023725Y001965
X002535Y0020225
X003035Y00198
X0031025Y002035
X003217Y0022345
X0032175Y0023175
Y0024025
Y0024875
X00314Y002445
X0032975Y00236
Y002275
X003225Y0027725
X0031975Y0028675
X003295Y002845
X003425Y0028425
X0035075Y0028375
X00362Y00281
X003725Y002815
X003775Y0027575
X0042075Y002735
X0042725Y002685
X004275Y002825
X004485
X0045525Y0027
Y002565
X00421Y002335
X0042525Y00202
X0039625Y0020575
X00394Y0021675
X0039885Y001485
X0041415Y0015538
X0043375Y0015425
X0037925Y0014255
X003655
X0032751Y0014676
X003225Y001525
X003365Y001115
X0028125Y0011175
X0028375Y001195
X0018375Y001205
X0017
X0015375Y00126
Y0013925
X00128Y00152
X0013675Y0017725
X001235Y002215
X00081Y001965
X0018325Y00241
X001435Y002935
X001375Y002895
X00133Y002975
X0012325Y0030775
X0013075Y003395
X00283Y0036075
X002915Y0035975
X0030075Y0036225
X0030025Y00372
X003195Y003715
X00326Y0038225
X0033175Y0038475
X003445Y003715
X0036425Y0037125
X0037125Y0036475
Y003395
X003895Y003355
X00401
X00395Y00329
X00417Y00337
Y0036075
X0042475Y00376
X00434Y0039125
X00442Y0036875
X0039815Y0036965
X0035925Y00385
X003535Y00356
Y0033275
X00335Y0033025
X003285Y0033425
X00316Y003335
X003045Y0032725
X0034025Y00324
X0031275Y0026925
X002675Y0028325
X0025675Y002615
X0028325Y00387
X002975Y0041475
X002805Y00432
X0037875Y0044
X0038505Y004401
X0039975Y00438
X00443Y003145
X001975Y0010125
X0000773Y001045
X0000775Y00121
X0000773Y0013725
Y0015225
X0000775Y0016875
X0000773Y00185
Y002
X0000775Y002165
X0000773Y002335
Y002485
X0000775Y00265
X0000773Y0028175
Y0029675
X0000775Y0031325
X0000773Y0032775
Y0034275
X0000775Y0035925
X0000773Y003755
Y003905
X0000775Y00407
X0000773Y0042325
Y0043825
X0000775Y0045475
X0000773Y00471
Y00486
X0000775Y005025
X0000773Y0051925
Y0053425
X0000775Y0055075
X0000773Y00567
Y00582
X0000775Y005985
X0000773Y00615
Y0063
X0000775Y006465
X0000773Y0066275
Y0067775
X0000775Y0069425
X0000773Y007095
Y007245
X0000775Y00741
Y0075775
Y0077275
X0000777Y0078925
X00008Y00807
X0001275Y008145
X0002252Y008179
X000365Y00818
X00053Y0081798
X00068
X00053Y00732
X000285Y007405
X000265Y00672
Y0065925
Y006465
X0002325Y006375
X0003125Y00582
X0004025Y0055575
X0003325Y0052775
X00063Y0054075
X000725Y005805
X0008675Y0055725
X000865Y0052875
X0007875Y005115
X001295Y004955
X0014675Y0049625
X0016625Y0049275
X001715Y00514
X0017596Y0051775
X00182Y0050525
X00239Y005105
X0028775Y0049275
X00285Y00575
X0026975
X00261Y00571
X0026975Y0059325
X002655Y006015
X0027075Y00608
X0025825
X0026425Y0061875
X0027675
X002828Y006183
Y006287
X002975Y0063075
X0030575Y00633
X00318Y0062775
X0031525Y0061875
X0030925Y00608
X0031325Y00602
X0032325
Y0058825
Y00579
X00316Y00575
X0030175
X0029875Y0061475
X002828Y006048
X00243Y0061425
Y0062325
X0023175Y0064325
X00221Y0064925
Y00636
X0020625Y006345
X00202Y006195
X0017175Y006165
Y006055
X00147Y0059425
X00145Y0061925
X001475Y0063225
Y00643
Y0065325
Y006645
X001685Y006645
X0017125Y0069875
X001805Y00699
X0016025
X001465Y006925
X0013225
X0011125Y00705
X00111Y0071425
X00091Y00709
X0008575Y0073375
X00104Y007355
X0012025Y00758
X0013475Y007455
X00143Y0074625
X00144Y00776
X00154Y0078025
X0015425Y0077175
X00173Y007805
X0018475Y007775
X00194Y00758
X0021225Y007665
X00215Y007915
Y0080075
X00207Y0080375
X0021075Y0081796
X0019575
X0017925Y0081798
X00163Y0081796
X00148
X001315Y0081798
X0011625Y0081796
X0010125
X0008475Y0081798
X0007625Y00786
X00097Y0077825
X0007625Y0075175
X00176Y00738
X002195Y0073025
X002175Y007245
X00206Y007095
X0020025Y00703
X00221Y0069925
Y00687
Y0067025
X0023175Y0066625
Y00681
Y0069325
X00207Y00677
X001985Y0065375
X0024625Y0066575
X00284Y0066625
X002905
X00297
X003035
X0031
X0031475Y00671
Y006775
Y00684
Y006905
X0031925Y0069525
X0031825Y00702
X00297Y0070525
X002905
X00284
X0027576Y0070528
X0027575Y00697
X0027925Y00684
Y006775
Y00671
X0027425Y0074
X0026151Y0073854
X0025125Y007445
X002375
X002315
X00245Y0075875
X00278Y0075975
X00285Y00762
X0029125Y0075975
X003035Y0075975
X0031325Y0075975
X003265Y0076
X003205Y0074925
X0034175Y007415
X0034775Y007295
Y00723
X00348Y0071425
X00373
Y0070525
Y0069225
X003725Y0068075
X0036225Y0068625
Y006735
X0034875Y006795
X0036225Y0069925
X0036Y0073625
X00412Y00744
Y007505
X0041225Y007645
X0039875Y0078125
Y00789
X004085Y00796
X0040425Y008055
X00398
X004025Y0081796
X0041875Y0081798
X0043525Y0081796
X0045025
X004665Y0081798
X00469Y0074325
X004615Y007425
Y0071575
X004465Y0072525
X004415Y007505
X0043575Y0065525
X0044725Y00655
X004545
X0041275
X0040025Y00667
X00394Y0067325
X003835
X0040125Y0068475
X0039902Y0069116
X00394Y006405
X0038775Y0062875
X00373Y00634
Y006445
X0036025Y0061875
X0034775
X0034175Y00608
X0035425
X00343Y00582
X0038725Y005975
X00408Y005995
X0042275Y00587
X0041775Y00631
X0032625Y00633
X0024025Y0058475
X0019575Y005855
X0011175Y0058025
X00116Y0059725
X0010825Y0061275
X0012175Y0062425
X0010825Y0064525
X00134Y005285
X00296Y007445
X00295Y0080475
X002915Y0081796
X003065
X0032325Y0081798
X0033975Y0081796
X0035475
X00371Y0081798
X0036875Y00789
X00275Y0081798
X0025875Y0081796
X0024375
X0022725Y0081798
X00483Y0081796
X00498
X005125Y0081798
X00529Y0081796
X00544
X005487Y0080635
X0054865Y008005
X005487Y007946
X0053575Y0080325
X005215Y00804
X0056075Y0081798
X0057725Y0081796
X0059225
X0060925Y0081798
X0062575Y0081796
X0064075
X00657Y0081798
X006735Y0081796
X00687Y00813
X00693Y00804
Y00789
X0069298Y007725
Y007575
Y0074075
X0069296Y0072425
Y0070925
X0069298Y00694
X0069296Y006775
Y006625
X0069298Y0064625
X0069296Y0062975
Y0061475
X0069298Y0059825
X0069296Y0058175
Y0056675
X0069298Y005505
X0069296Y00534
Y00519
X0069298Y0050225
X00668Y00532
X006345Y0053225
X0061825Y005495
X0063275Y0056475
X0064725Y00577
X006255Y005925
X0062625Y0063925
X006375Y0065575
X00637Y0067725
Y0068325
X006665Y006675
X0067425Y00723
X0065075Y0074075
X0063875Y007495
X006315Y0072425
X006445Y007785
X006356Y007945
X0063565Y008004
X006356Y0080625
X0059915
X005991Y008004
X0059915Y007945
X005848Y0079465
X0058485Y008005
X005848Y008064
X0059275Y0077225
X0052075Y007205
X00521Y007115
X005015Y0072525
X004865
X004715Y00725
X00479Y0074325
X00489Y007425
X0047825Y00682
X0046975
X00495Y0067575
X0050425Y006785
X005087Y0064275
Y0063075
X0050875Y0062025
Y0060825
Y0059775
Y0058575
X005193Y0059175
X004982Y0059175
Y0061425
X005193Y0061425
X0051925Y0063675
X0049815Y0063675
X0053325Y0069025
X0055425Y005695
X0055475Y0050825
X005255Y005135
X0051825Y0050625
X0050275Y005255
X00494Y0052237
X006115Y00518
X0066775Y00601
T03
X000325Y000504
X000579
Y000758
X000325
X001087
Y000504
X005913
Y000758
X006421
X006675
Y000504
X006421
Y001012
X006675
Y001266
Y00152
Y001774
X006421
Y002028
X006675
Y002282
Y002536
Y00279
Y003044
X006421
Y003298
X006675
Y003552
X006421
Y003806
Y00406
X006675
Y003806
Y004314
Y004568
Y004822
X006421
Y004568
Y004314
X005913Y0042124
Y0044664
Y0047204
Y0039584
Y0037044
Y0034504
Y0031964
Y0029424
Y0026884
Y002282
Y002028
Y001774
Y00152
Y001266
Y001012
X006421Y001266
Y00152
Y002282
Y002536
Y00279
X004077Y0041225
X003823
X00342
X003166
X001087Y00406
Y003806
Y003552
Y003298
Y003044
Y00279
Y002536
Y002282
Y001774
Y00152
Y001266
Y001012
X000579
Y001266
Y00152
Y001774
X000325
Y002028
X000579
Y002282
Y002536
Y00279
Y003044
X000325
Y003298
X000579
Y003552
X000325
Y003806
Y00406
X000579
Y003806
Y004314
Y004568
Y004822
X000325
Y004568
Y004314
Y00279
Y002536
Y002282
Y00152
Y001266
Y001012
Y005076
X000579
X000325Y007616
Y00787
X001119Y008004
X001373
X001627
X001881
X002473
X002727
X006675Y00787
Y007616
X0059125Y0068025
X0056585
Y0065485
Y0062945
Y0060405
Y0057865
X0059125
Y0060405
Y0062945
Y0065485
X005913Y0049744
X006421Y005076
X006675
M30
